<svg width="221" height="220" viewBox="0 0 221 220" fill="none" xmlns="http://www.w3.org/2000/svg">
<path d="M60.2604 0H53.5944V6.66599H60.2604V0Z" fill="white"/>
<path d="M66.9862 0H60.3203V6.66599H66.9862V0Z" fill="white"/>
<path d="M80.3342 0H73.6682V6.66599H80.3342V0Z" fill="white"/>
<path d="M93.6663 0H87.0003V6.66599H93.6663V0Z" fill="white"/>
<path d="M100.331 0H93.6653V6.66599H100.331V0Z" fill="white"/>
<path d="M113.661 0H106.995V6.66599H113.661V0Z" fill="white"/>
<path d="M120.298 0H113.632V6.66599H120.298V0Z" fill="white"/>
<path d="M126.948 0H120.282V6.66599H126.948V0Z" fill="white"/>
<path d="M146.976 0H140.31V6.66599H146.976V0Z" fill="white"/>
<path d="M60.2604 6.66577H53.5944V13.3318H60.2604V6.66577Z" fill="white"/>
<path d="M73.6666 6.66577H67.0006V13.3318H73.6666V6.66577Z" fill="white"/>
<path d="M86.9554 6.66577H80.2894V13.3318H86.9554V6.66577Z" fill="white"/>
<path d="M93.6667 6.66577H87.0007V13.3318H93.6667V6.66577Z" fill="white"/>
<path d="M100.331 6.66577H93.6653V13.3318H100.331V6.66577Z" fill="white"/>
<path d="M113.662 6.66577H106.996V13.3318H113.662V6.66577Z" fill="white"/>
<path d="M120.298 6.66577H113.632V13.3318H120.298V6.66577Z" fill="white"/>
<path d="M126.948 6.66577H120.282V13.3318H126.948V6.66577Z" fill="white"/>
<path d="M133.645 6.66577H126.979V13.3318H133.645V6.66577Z" fill="white"/>
<path d="M140.311 6.66577H133.645V13.3318H140.311V6.66577Z" fill="white"/>
<path d="M153.658 6.66577H146.992V13.3318H153.658V6.66577Z" fill="white"/>
<path d="M60.2604 13.3367H53.5944V20.0027H60.2604V13.3367Z" fill="white"/>
<path d="M66.9862 13.3367H60.3203V20.0027H66.9862V13.3367Z" fill="white"/>
<path d="M73.6666 13.3367H67.0006V20.0027H73.6666V13.3367Z" fill="white"/>
<path d="M80.3357 13.3367H73.6697V20.0027H80.3357V13.3367Z" fill="white"/>
<path d="M86.9554 13.3367H80.2894V20.0027H86.9554V13.3367Z" fill="white"/>
<path d="M93.6667 13.3367H87.0007V20.0027H93.6667V13.3367Z" fill="white"/>
<path d="M100.331 13.3367H93.6653V20.0027H100.331V13.3367Z" fill="white"/>
<path d="M113.662 13.3367H106.996V20.0027H113.662V13.3367Z" fill="white"/>
<path d="M133.643 13.3367H126.977V20.0027H133.643V13.3367Z" fill="white"/>
<path d="M140.312 13.3367H133.646V20.0027H140.312V13.3367Z" fill="white"/>
<path d="M146.975 13.3367H140.309V20.0027H146.975V13.3367Z" fill="white"/>
<path d="M160.28 13.3367H153.614V20.0027H160.28V13.3367Z" fill="white"/>
<path d="M167.006 13.3367H160.34V20.0027H167.006V13.3367Z" fill="white"/>
<path d="M66.9862 19.998H60.3203V26.664H66.9862V19.998Z" fill="white"/>
<path d="M73.6666 19.998H67.0006V26.664H73.6666V19.998Z" fill="white"/>
<path d="M80.3357 19.998H73.6697V26.664H80.3357V19.998Z" fill="white"/>
<path d="M100.331 19.998H93.6653V26.664H100.331V19.998Z" fill="white"/>
<path d="M113.662 19.998H106.996V26.664H113.662V19.998Z" fill="white"/>
<path d="M120.298 19.998H113.632V26.664H120.298V19.998Z" fill="white"/>
<path d="M140.312 19.998H133.646V26.664H140.312V19.998Z" fill="white"/>
<path d="M167.006 19.998H160.34V26.664H167.006V19.998Z" fill="white"/>
<path d="M60.2604 26.6633H53.5944V33.3293H60.2604V26.6633Z" fill="white"/>
<path d="M73.6679 26.6646H67.0019V33.3305H73.6679V26.6646Z" fill="white"/>
<path d="M93.6663 26.6643H87.0003V33.3303H93.6663V26.6643Z" fill="white"/>
<path d="M107.012 26.6633H100.346V33.3293H107.012V26.6633Z" fill="white"/>
<path d="M113.661 26.6646H106.995V33.3305H113.661V26.6646Z" fill="white"/>
<path d="M133.644 26.6643H126.978V33.3303H133.644V26.6643Z" fill="white"/>
<path d="M146.976 26.6631H140.31V33.3291H146.976V26.6631Z" fill="white"/>
<path d="M153.658 26.6643H146.992V33.3303H153.658V26.6643Z" fill="white"/>
<path d="M93.6667 33.3267H87.0007V39.9927H93.6667V33.3267Z" fill="white"/>
<path d="M100.331 33.3267H93.6653V39.9927H100.331V33.3267Z" fill="white"/>
<path d="M107.012 33.3267H100.346V39.9927H107.012V33.3267Z" fill="white"/>
<path d="M113.661 33.3267H106.995V39.9927H113.661V33.3267Z" fill="white"/>
<path d="M140.311 33.3267H133.645V39.9927H140.311V33.3267Z" fill="white"/>
<path d="M160.28 33.3267H153.614V39.9927H160.28V33.3267Z" fill="white"/>
<path d="M167.006 33.3267H160.34V39.9927H167.006V33.3267Z" fill="white"/>
<path d="M60.2604 39.9944H53.5944V46.6604H60.2604V39.9944Z" fill="white"/>
<path d="M73.6666 39.9944H67.0006V46.6604H73.6666V39.9944Z" fill="white"/>
<path d="M86.9554 39.9944H80.2894V46.6604H86.9554V39.9944Z" fill="white"/>
<path d="M100.331 39.9944H93.6653V46.6604H100.331V39.9944Z" fill="white"/>
<path d="M113.662 39.9944H106.996V46.6604H113.662V39.9944Z" fill="white"/>
<path d="M126.948 39.9944H120.282V46.6604H126.948V39.9944Z" fill="white"/>
<path d="M140.312 39.9944H133.646V46.6604H140.312V39.9944Z" fill="white"/>
<path d="M153.658 39.9941H146.992V46.6601H153.658V39.9941Z" fill="white"/>
<path d="M167.006 39.9944H160.34V46.6604H167.006V39.9944Z" fill="white"/>
<path d="M66.9862 46.668H60.3203V53.334H66.9862V46.668Z" fill="white"/>
<path d="M80.3344 46.6692H73.6684V53.3352H80.3344V46.6692Z" fill="white"/>
<path d="M93.6667 46.6692H87.0007V53.3352H93.6667V46.6692Z" fill="white"/>
<path d="M100.331 46.668H93.6653V53.334H100.331V46.668Z" fill="white"/>
<path d="M107.012 46.668H100.346V53.334H107.012V46.668Z" fill="white"/>
<path d="M113.661 46.6692H106.995V53.3352H113.661V46.6692Z" fill="white"/>
<path d="M133.645 46.6692H126.979V53.3352H133.645V46.6692Z" fill="white"/>
<path d="M6.99619 53.3264H0.3302V59.9924H6.99619V53.3264Z" fill="white"/>
<path d="M27.054 53.3264H20.388V59.9924H27.054V53.3264Z" fill="white"/>
<path d="M33.6594 53.3264H26.9934V59.9924H33.6594V53.3264Z" fill="white"/>
<path d="M40.3229 53.3267H33.6569V59.9927H40.3229V53.3267Z" fill="white"/>
<path d="M46.9319 53.3267H40.2659V59.9927H46.9319V53.3267Z" fill="white"/>
<path d="M53.6116 53.3267H46.9456V59.9927H53.6116V53.3267Z" fill="white"/>
<path d="M60.2604 53.3267H53.5944V59.9927H60.2604V53.3267Z" fill="white"/>
<path d="M66.9862 53.3267H60.3203V59.9927H66.9862V53.3267Z" fill="white"/>
<path d="M86.9554 53.3267H80.2894V59.9927H86.9554V53.3267Z" fill="white"/>
<path d="M100.331 53.3267H93.6653V59.9927H100.331V53.3267Z" fill="white"/>
<path d="M120.298 53.3267H113.632V59.9927H120.298V53.3267Z" fill="white"/>
<path d="M133.643 53.3267H126.977V59.9927H133.643V53.3267Z" fill="white"/>
<path d="M140.312 53.3267H133.646V59.9927H140.312V53.3267Z" fill="white"/>
<path d="M173.625 53.3267H166.959V59.9927H173.625V53.3267Z" fill="white"/>
<path d="M193.637 53.3267H186.971V59.9927H193.637V53.3267Z" fill="white"/>
<path d="M206.952 53.3264H200.286V59.9924H206.952V53.3264Z" fill="white"/>
<path d="M213.648 53.3267H206.982V59.9927H213.648V53.3267Z" fill="white"/>
<path d="M220.271 53.3264H213.605V59.9924H220.271V53.3264Z" fill="white"/>
<path d="M6.99619 60.0002H0.3302V66.6662H6.99619V60.0002Z" fill="white"/>
<path d="M20.3285 60.0002H13.6625V66.6662H20.3285V60.0002Z" fill="white"/>
<path d="M60.2604 60.0002H53.5944V66.6662H60.2604V60.0002Z" fill="white"/>
<path d="M66.9862 60.0002H60.3203V66.6662H66.9862V60.0002Z" fill="white"/>
<path d="M73.6666 60.0002H67.0006V66.6662H73.6666V60.0002Z" fill="white"/>
<path d="M80.3357 60.0002H73.6697V66.6662H80.3357V60.0002Z" fill="white"/>
<path d="M93.6667 60.0002H87.0007V66.6662H93.6667V60.0002Z" fill="white"/>
<path d="M100.331 60.0002H93.6653V66.6662H100.331V60.0002Z" fill="white"/>
<path d="M107.012 60.0002H100.346V66.6662H107.012V60.0002Z" fill="white"/>
<path d="M126.948 60.0002H120.282V66.6662H126.948V60.0002Z" fill="white"/>
<path d="M133.643 60.0002H126.977V66.6662H133.643V60.0002Z" fill="white"/>
<path d="M146.975 60.0002H140.309V66.6662H146.975V60.0002Z" fill="white"/>
<path d="M153.658 60.0002H146.992V66.6662H153.658V60.0002Z" fill="white"/>
<path d="M160.28 60.0002H153.614V66.6662H160.28V60.0002Z" fill="white"/>
<path d="M193.637 60.0002H186.971V66.6662H193.637V60.0002Z" fill="white"/>
<path d="M200.272 60.0002H193.606V66.6662H200.272V60.0002Z" fill="white"/>
<path d="M206.953 60.0002H200.287V66.6662H206.953V60.0002Z" fill="white"/>
<path d="M6.99619 66.6638H0.3302V73.3298H6.99619V66.6638Z" fill="white"/>
<path d="M13.6172 66.666H6.95117V73.332H13.6172V66.666Z" fill="white"/>
<path d="M20.3283 66.666H13.6624V73.332H20.3283V66.666Z" fill="white"/>
<path d="M27.054 66.6638H20.388V73.3298H27.054V66.6638Z" fill="white"/>
<path d="M33.6604 66.666H26.9944V73.332H33.6604V66.666Z" fill="white"/>
<path d="M40.3229 66.666H33.6569V73.332H40.3229V66.666Z" fill="white"/>
<path d="M46.9319 66.666H40.2659V73.332H46.9319V66.666Z" fill="white"/>
<path d="M60.2604 66.666H53.5944V73.332H60.2604V66.666Z" fill="white"/>
<path d="M80.3342 66.666H73.6682V73.332H80.3342V66.666Z" fill="white"/>
<path d="M93.6663 66.666H87.0003V73.332H93.6663V66.666Z" fill="white"/>
<path d="M107.012 66.666H100.346V73.332H107.012V66.666Z" fill="white"/>
<path d="M120.298 66.6636H113.632V73.3296H120.298V66.6636Z" fill="white"/>
<path d="M153.658 66.666H146.992V73.332H153.658V66.666Z" fill="white"/>
<path d="M160.28 66.666H153.614V73.332H160.28V66.666Z" fill="white"/>
<path d="M180.293 66.666H173.627V73.332H180.293V66.666Z" fill="white"/>
<path d="M193.638 66.666H186.972V73.332H193.638V66.666Z" fill="white"/>
<path d="M200.272 66.666H193.606V73.332H200.272V66.666Z" fill="white"/>
<path d="M206.953 66.666H200.287V73.332H206.953V66.666Z" fill="white"/>
<path d="M213.648 66.666H206.982V73.332H213.648V66.666Z" fill="white"/>
<path d="M220.271 66.666H213.605V73.332H220.271V66.666Z" fill="white"/>
<path d="M13.6172 73.3313H6.95117V79.9973H13.6172V73.3313Z" fill="white"/>
<path d="M33.6596 73.3313H26.9936V79.9973H33.6596V73.3313Z" fill="white"/>
<path d="M40.3229 73.3313H33.6569V79.9973H40.3229V73.3313Z" fill="white"/>
<path d="M53.6116 73.3313H46.9456V79.9973H53.6116V73.3313Z" fill="white"/>
<path d="M60.2604 73.3313H53.5944V79.9973H60.2604V73.3313Z" fill="white"/>
<path d="M73.6666 73.3313H67.0006V79.9973H73.6666V73.3313Z" fill="white"/>
<path d="M80.3357 73.3313H73.6697V79.9973H80.3357V73.3313Z" fill="white"/>
<path d="M86.9554 73.3313H80.2894V79.9973H86.9554V73.3313Z" fill="white"/>
<path d="M93.6667 73.3313H87.0007V79.9973H93.6667V73.3313Z" fill="white"/>
<path d="M107.012 73.3313H100.346V79.9973H107.012V73.3313Z" fill="white"/>
<path d="M113.662 73.3313H106.996V79.9973H113.662V73.3313Z" fill="white"/>
<path d="M120.298 73.3313H113.632V79.9973H120.298V73.3313Z" fill="white"/>
<path d="M126.948 73.3313H120.282V79.9973H126.948V73.3313Z" fill="white"/>
<path d="M133.643 73.3313H126.977V79.9973H133.643V73.3313Z" fill="white"/>
<path d="M160.28 73.3313H153.614V79.9973H160.28V73.3313Z" fill="white"/>
<path d="M173.625 73.3313H166.959V79.9973H173.625V73.3313Z" fill="white"/>
<path d="M187.002 73.3313H180.336V79.9973H187.002V73.3313Z" fill="white"/>
<path d="M206.953 73.3313H200.287V79.9973H206.953V73.3313Z" fill="white"/>
<path d="M213.648 73.3313H206.982V79.9973H213.648V73.3313Z" fill="white"/>
<path d="M220.27 73.3313H213.604V79.9973H220.27V73.3313Z" fill="white"/>
<path d="M6.99619 79.9949H0.3302V86.6609H6.99619V79.9949Z" fill="white"/>
<path d="M13.6172 79.9946H6.95117V86.6606H13.6172V79.9946Z" fill="white"/>
<path d="M20.3283 79.9949H13.6624V86.6609H20.3283V79.9949Z" fill="white"/>
<path d="M27.054 79.9949H20.388V86.6609H27.054V79.9949Z" fill="white"/>
<path d="M46.9319 79.9946H40.2659V86.6606H46.9319V79.9946Z" fill="white"/>
<path d="M60.2604 79.9946H53.5944V86.6606H60.2604V79.9946Z" fill="white"/>
<path d="M73.6666 79.9946H67.0006V86.6606H73.6666V79.9946Z" fill="white"/>
<path d="M80.3352 79.9949H73.6693V86.6609H80.3352V79.9949Z" fill="white"/>
<path d="M93.6663 79.9949H87.0003V86.6609H93.6663V79.9949Z" fill="white"/>
<path d="M107.012 79.9946H100.346V86.6606H107.012V79.9946Z" fill="white"/>
<path d="M113.662 79.9946H106.996V86.6606H113.662V79.9946Z" fill="white"/>
<path d="M126.948 79.9946H120.282V86.6606H126.948V79.9946Z" fill="white"/>
<path d="M133.643 79.9946H126.977V86.6606H133.643V79.9946Z" fill="white"/>
<path d="M140.312 79.9946H133.646V86.6606H140.312V79.9946Z" fill="white"/>
<path d="M167.006 79.9946H160.34V86.6606H167.006V79.9946Z" fill="white"/>
<path d="M180.293 79.9946H173.627V86.6606H180.293V79.9946Z" fill="white"/>
<path d="M6.99619 86.655H0.3302V93.321H6.99619V86.655Z" fill="white"/>
<path d="M20.3283 86.655H13.6624V93.321H20.3283V86.655Z" fill="white"/>
<path d="M33.6594 86.655H26.9934V93.321H33.6594V86.655Z" fill="white"/>
<path d="M40.3229 86.6548H33.6569V93.3208H40.3229V86.6548Z" fill="white"/>
<path d="M80.3352 86.655H73.6693V93.321H80.3352V86.655Z" fill="white"/>
<path d="M86.9554 86.6548H80.2894V93.3208H86.9554V86.6548Z" fill="white"/>
<path d="M93.6663 86.655H87.0003V93.321H93.6663V86.655Z" fill="white"/>
<path d="M100.331 86.6548H93.6653V93.3208H100.331V86.6548Z" fill="white"/>
<path d="M126.948 86.6548H120.282V93.3208H126.948V86.6548Z" fill="white"/>
<path d="M153.658 86.655H146.992V93.321H153.658V86.655Z" fill="white"/>
<path d="M160.28 86.6548H153.614V93.3208H160.28V86.6548Z" fill="white"/>
<path d="M187.002 86.655H180.336V93.321H187.002V86.655Z" fill="white"/>
<path d="M13.6172 93.3269H6.95117V99.9929H13.6172V93.3269Z" fill="white"/>
<path d="M20.3283 93.3271H13.6624V99.9931H20.3283V93.3271Z" fill="white"/>
<path d="M27.054 93.3271H20.388V99.9931H27.054V93.3271Z" fill="white"/>
<path d="M33.6594 93.3271H26.9934V99.9931H33.6594V93.3271Z" fill="white"/>
<path d="M46.9319 93.3269H40.2659V99.9929H46.9319V93.3269Z" fill="white"/>
<path d="M60.2604 93.3269H53.5944V99.9929H60.2604V93.3269Z" fill="white"/>
<path d="M66.9862 93.3269H60.3203V99.9929H66.9862V93.3269Z" fill="white"/>
<path d="M80.3352 93.3271H73.6693V99.9931H80.3352V93.3271Z" fill="white"/>
<path d="M86.9554 93.3269H80.2894V99.9929H86.9554V93.3269Z" fill="white"/>
<path d="M107.012 93.3269H100.346V99.9929H107.012V93.3269Z" fill="white"/>
<path d="M113.662 93.3269H106.996V99.9929H113.662V93.3269Z" fill="white"/>
<path d="M120.298 93.3269H113.632V99.9929H120.298V93.3269Z" fill="white"/>
<path d="M126.948 93.3269H120.282V99.9929H126.948V93.3269Z" fill="white"/>
<path d="M133.645 93.3271H126.979V99.9931H133.645V93.3271Z" fill="white"/>
<path d="M146.976 93.3271H140.31V99.9931H146.976V93.3271Z" fill="white"/>
<path d="M153.658 93.3271H146.992V99.9931H153.658V93.3271Z" fill="white"/>
<path d="M180.293 93.3269H173.627V99.9929H180.293V93.3269Z" fill="white"/>
<path d="M206.952 93.3271H200.286V99.9931H206.952V93.3271Z" fill="white"/>
<path d="M6.99619 99.9883H0.3302V106.654H6.99619V99.9883Z" fill="white"/>
<path d="M20.3283 99.9873H13.6624V106.653H20.3283V99.9873Z" fill="white"/>
<path d="M53.6116 99.9871H46.9456V106.653H53.6116V99.9871Z" fill="white"/>
<path d="M60.2604 99.9871H53.5944V106.653H60.2604V99.9871Z" fill="white"/>
<path d="M66.9862 99.9871H60.3203V106.653H66.9862V99.9871Z" fill="white"/>
<path d="M73.6666 99.9871H67.0006V106.653H73.6666V99.9871Z" fill="white"/>
<path d="M86.9554 99.9927H80.2894V106.659H86.9554V99.9927Z" fill="white"/>
<path d="M93.6663 99.9873H87.0003V106.653H93.6663V99.9873Z" fill="white"/>
<path d="M100.331 99.9871H93.6653V106.653H100.331V99.9871Z" fill="white"/>
<path d="M133.643 99.9871H126.977V106.653H133.643V99.9871Z" fill="white"/>
<path d="M140.312 99.9871H133.646V106.653H140.312V99.9871Z" fill="white"/>
<path d="M160.28 99.9871H153.614V106.653H160.28V99.9871Z" fill="white"/>
<path d="M173.625 99.9871H166.959V106.653H173.625V99.9871Z" fill="white"/>
<path d="M187.002 99.9873H180.336V106.653H187.002V99.9873Z" fill="white"/>
<path d="M200.272 99.9927H193.606V106.659H200.272V99.9927Z" fill="white"/>
<path d="M206.952 99.9873H200.286V106.653H206.952V99.9873Z" fill="white"/>
<path d="M220.271 99.9873H213.605V106.653H220.271V99.9873Z" fill="white"/>
<path d="M27.0544 106.652H20.3884V113.318H27.0544V106.652Z" fill="white"/>
<path d="M40.3229 106.652H33.6569V113.318H40.3229V106.652Z" fill="white"/>
<path d="M46.9319 106.652H40.2659V113.318H46.9319V106.652Z" fill="white"/>
<path d="M73.6666 106.652H67.0006V113.318H73.6666V106.652Z" fill="white"/>
<path d="M80.3352 106.659H73.6693V113.325H80.3352V106.659Z" fill="white"/>
<path d="M153.658 106.659H146.992V113.325H153.658V106.659Z" fill="white"/>
<path d="M167.006 106.652H160.34V113.318H167.006V106.652Z" fill="white"/>
<path d="M173.625 106.652H166.959V113.318H173.625V106.652Z" fill="white"/>
<path d="M180.293 106.652H173.627V113.318H180.293V106.652Z" fill="white"/>
<path d="M187.002 106.652H180.336V113.318H187.002V106.652Z" fill="white"/>
<path d="M193.637 106.652H186.971V113.318H193.637V106.652Z" fill="white"/>
<path d="M20.3283 113.31H13.6624V119.976H20.3283V113.31Z" fill="white"/>
<path d="M27.054 113.31H20.388V119.976H27.054V113.31Z" fill="white"/>
<path d="M53.6116 113.31H46.9456V119.976H53.6116V113.31Z" fill="white"/>
<path d="M93.6663 113.31H87.0003V119.976H93.6663V113.31Z" fill="white"/>
<path d="M107.012 113.311H100.346V119.977H107.012V113.311Z" fill="white"/>
<path d="M126.948 113.31H120.282V119.976H126.948V113.31Z" fill="white"/>
<path d="M133.645 113.31H126.979V119.976H133.645V113.31Z" fill="white"/>
<path d="M140.311 113.311H133.645V119.977H140.311V113.311Z" fill="white"/>
<path d="M167.003 113.31H160.337V119.976H167.003V113.31Z" fill="white"/>
<path d="M180.293 113.311H173.627V119.977H180.293V113.311Z" fill="white"/>
<path d="M193.638 113.31H186.972V119.976H193.638V113.31Z" fill="white"/>
<path d="M206.953 113.31H200.287V119.976H206.953V113.31Z" fill="white"/>
<path d="M220.271 113.31H213.605V119.976H220.271V113.31Z" fill="white"/>
<path d="M13.6172 119.991H6.95117V126.657H13.6172V119.991Z" fill="white"/>
<path d="M33.6594 119.992H26.9934V126.658H33.6594V119.992Z" fill="white"/>
<path d="M46.9319 119.993H40.2659V126.659H46.9319V119.993Z" fill="white"/>
<path d="M60.2604 119.993H53.5944V126.659H60.2604V119.993Z" fill="white"/>
<path d="M73.6666 119.991H67.0006V126.657H73.6666V119.991Z" fill="white"/>
<path d="M80.3352 119.991H73.6693V126.657H80.3352V119.991Z" fill="white"/>
<path d="M107.012 119.993H100.346V126.659H107.012V119.993Z" fill="white"/>
<path d="M133.645 119.991H126.979V126.657H133.645V119.991Z" fill="white"/>
<path d="M140.311 119.991H133.645V126.657H140.311V119.991Z" fill="white"/>
<path d="M153.658 119.991H146.992V126.657H153.658V119.991Z" fill="white"/>
<path d="M160.28 119.991H153.614V126.657H160.28V119.991Z" fill="white"/>
<path d="M167.005 119.991H160.339V126.657H167.005V119.991Z" fill="white"/>
<path d="M173.625 119.993H166.959V126.659H173.625V119.993Z" fill="white"/>
<path d="M180.293 119.993H173.627V126.659H180.293V119.993Z" fill="white"/>
<path d="M187.002 119.992H180.336V126.658H187.002V119.992Z" fill="white"/>
<path d="M200.272 119.983H193.606V126.649H200.272V119.983Z" fill="white"/>
<path d="M206.952 119.992H200.286V126.658H206.952V119.992Z" fill="white"/>
<path d="M213.648 119.991H206.982V126.657H213.648V119.991Z" fill="white"/>
<path d="M220.271 119.991H213.605V126.657H220.271V119.991Z" fill="white"/>
<path d="M13.6172 126.655H6.95117V133.321H13.6172V126.655Z" fill="white"/>
<path d="M20.3285 126.657H13.6625V133.323H20.3285V126.657Z" fill="white"/>
<path d="M27.0544 126.657H20.3884V133.323H27.0544V126.657Z" fill="white"/>
<path d="M53.6116 126.657H46.9456V133.323H53.6116V126.657Z" fill="white"/>
<path d="M73.6666 126.655H67.0006V133.321H73.6666V126.655Z" fill="white"/>
<path d="M100.331 126.657H93.6653V133.323H100.331V126.657Z" fill="white"/>
<path d="M113.661 126.657H106.995V133.323H113.661V126.657Z" fill="white"/>
<path d="M126.948 126.657H120.282V133.323H126.948V126.657Z" fill="white"/>
<path d="M167.005 126.655H160.339V133.321H167.005V126.655Z" fill="white"/>
<path d="M173.625 126.657H166.959V133.323H173.625V126.657Z" fill="white"/>
<path d="M193.638 126.657H186.972V133.323H193.638V126.657Z" fill="white"/>
<path d="M200.272 126.657H193.606V133.323H200.272V126.657Z" fill="white"/>
<path d="M206.954 126.657H200.288V133.323H206.954V126.657Z" fill="white"/>
<path d="M13.6172 133.315H6.95117V139.981H13.6172V133.315Z" fill="white"/>
<path d="M20.3285 133.314H13.6625V139.98H20.3285V133.314Z" fill="white"/>
<path d="M46.9319 133.314H40.2659V139.98H46.9319V133.314Z" fill="white"/>
<path d="M53.6116 133.314H46.9456V139.98H53.6116V133.314Z" fill="white"/>
<path d="M60.2604 133.316H53.5944V139.982H60.2604V133.316Z" fill="white"/>
<path d="M66.9862 133.316H60.3203V139.982H66.9862V133.316Z" fill="white"/>
<path d="M73.6666 133.315H67.0006V139.981H73.6666V133.315Z" fill="white"/>
<path d="M93.6667 133.314H87.0007V139.98H93.6667V133.314Z" fill="white"/>
<path d="M107.012 133.316H100.346V139.982H107.012V133.316Z" fill="white"/>
<path d="M113.661 133.314H106.995V139.98H113.661V133.314Z" fill="white"/>
<path d="M120.298 133.316H113.632V139.982H120.298V133.316Z" fill="white"/>
<path d="M140.311 133.315H133.645V139.981H140.311V133.315Z" fill="white"/>
<path d="M167.005 133.315H160.339V139.981H167.005V133.315Z" fill="white"/>
<path d="M187.002 133.316H180.336V139.982H187.002V133.316Z" fill="white"/>
<path d="M200.272 133.316H193.606V139.982H200.272V133.316Z" fill="white"/>
<path d="M220.27 133.315H213.604V139.981H220.27V133.315Z" fill="white"/>
<path d="M6.99619 139.987H0.3302V146.653H6.99619V139.987Z" fill="white"/>
<path d="M33.6596 139.987H26.9936V146.653H33.6596V139.987Z" fill="white"/>
<path d="M40.3229 139.987H33.6569V146.653H40.3229V139.987Z" fill="white"/>
<path d="M60.2604 139.987H53.5944V146.653H60.2604V139.987Z" fill="white"/>
<path d="M66.9862 139.987H60.3203V146.653H66.9862V139.987Z" fill="white"/>
<path d="M80.3357 139.987H73.6697V146.653H80.3357V139.987Z" fill="white"/>
<path d="M86.9554 139.987H80.2894V146.653H86.9554V139.987Z" fill="white"/>
<path d="M107.012 139.987H100.346V146.653H107.012V139.987Z" fill="white"/>
<path d="M120.298 139.987H113.632V146.653H120.298V139.987Z" fill="white"/>
<path d="M126.948 139.987H120.282V146.653H126.948V139.987Z" fill="white"/>
<path d="M133.643 139.987H126.977V146.653H133.643V139.987Z" fill="white"/>
<path d="M153.658 139.987H146.992V146.653H153.658V139.987Z" fill="white"/>
<path d="M160.28 139.987H153.614V146.653H160.28V139.987Z" fill="white"/>
<path d="M173.625 139.987H166.959V146.653H173.625V139.987Z" fill="white"/>
<path d="M180.293 139.987H173.627V146.653H180.293V139.987Z" fill="white"/>
<path d="M193.637 139.987H186.971V146.653H193.637V139.987Z" fill="white"/>
<path d="M200.272 139.987H193.606V146.653H200.272V139.987Z" fill="white"/>
<path d="M206.953 139.987H200.287V146.653H206.953V139.987Z" fill="white"/>
<path d="M6.99619 146.647H0.3302V153.313H6.99619V146.647Z" fill="white"/>
<path d="M27.054 146.655H20.388V153.321H27.054V146.655Z" fill="white"/>
<path d="M33.6604 146.655H26.9944V153.321H33.6604V146.655Z" fill="white"/>
<path d="M46.9319 146.655H40.2659V153.321H46.9319V146.655Z" fill="white"/>
<path d="M53.6116 146.655H46.9456V153.321H53.6116V146.655Z" fill="white"/>
<path d="M66.9862 146.655H60.3203V153.321H66.9862V146.655Z" fill="white"/>
<path d="M86.9554 146.655H80.2894V153.321H86.9554V146.655Z" fill="white"/>
<path d="M93.6663 146.655H87.0003V153.321H93.6663V146.655Z" fill="white"/>
<path d="M107.012 146.655H100.346V153.321H107.012V146.655Z" fill="white"/>
<path d="M113.661 146.655H106.995V153.321H113.661V146.655Z" fill="white"/>
<path d="M126.948 146.655H120.282V153.321H126.948V146.655Z" fill="white"/>
<path d="M146.976 146.655H140.31V153.321H146.976V146.655Z" fill="white"/>
<path d="M153.658 146.647H146.992V153.313H153.658V146.647Z" fill="white"/>
<path d="M160.28 146.655H153.614V153.321H160.28V146.655Z" fill="white"/>
<path d="M180.293 146.655H173.627V153.321H180.293V146.655Z" fill="white"/>
<path d="M187.002 146.655H180.336V153.321H187.002V146.655Z" fill="white"/>
<path d="M200.272 146.655H193.606V153.321H200.272V146.655Z" fill="white"/>
<path d="M206.953 146.655H200.287V153.321H206.953V146.655Z" fill="white"/>
<path d="M213.648 146.655H206.982V153.321H213.648V146.655Z" fill="white"/>
<path d="M220.271 146.655H213.605V153.321H220.271V146.655Z" fill="white"/>
<path d="M6.99619 153.312H0.3302V159.978H6.99619V153.312Z" fill="white"/>
<path d="M20.3283 153.312H13.6624V159.978H20.3283V153.312Z" fill="white"/>
<path d="M27.054 153.312H20.388V159.978H27.054V153.312Z" fill="white"/>
<path d="M33.6594 153.312H26.9934V159.978H33.6594V153.312Z" fill="white"/>
<path d="M40.3229 153.311H33.6569V159.977H40.3229V153.311Z" fill="white"/>
<path d="M66.9862 153.311H60.3203V159.977H66.9862V153.311Z" fill="white"/>
<path d="M73.6666 153.311H67.0006V159.977H73.6666V153.311Z" fill="white"/>
<path d="M86.9554 153.311H80.2894V159.977H86.9554V153.311Z" fill="white"/>
<path d="M100.331 153.311H93.6653V159.977H100.331V153.311Z" fill="white"/>
<path d="M120.298 153.311H113.632V159.977H120.298V153.311Z" fill="white"/>
<path d="M153.658 153.312H146.992V159.978H153.658V153.312Z" fill="white"/>
<path d="M167.005 153.311H160.339V159.977H167.005V153.311Z" fill="white"/>
<path d="M173.625 153.311H166.959V159.977H173.625V153.311Z" fill="white"/>
<path d="M187.002 153.312H180.336V159.978H187.002V153.312Z" fill="white"/>
<path d="M206.952 153.312H200.286V159.978H206.952V153.312Z" fill="white"/>
<path d="M213.648 153.311H206.982V159.977H213.648V153.311Z" fill="white"/>
<path d="M220.271 153.312H213.605V159.978H220.271V153.312Z" fill="white"/>
<path d="M6.99619 159.977H0.3302V166.643H6.99619V159.977Z" fill="white"/>
<path d="M13.6172 159.977H6.95117V166.643H13.6172V159.977Z" fill="white"/>
<path d="M20.3285 159.977H13.6625V166.643H20.3285V159.977Z" fill="white"/>
<path d="M33.6609 159.977H26.9949V166.643H33.6609V159.977Z" fill="white"/>
<path d="M40.3229 159.977H33.6569V166.643H40.3229V159.977Z" fill="white"/>
<path d="M46.9319 159.977H40.2659V166.643H46.9319V159.977Z" fill="white"/>
<path d="M53.6116 159.977H46.9456V166.643H53.6116V159.977Z" fill="white"/>
<path d="M60.2604 159.977H53.5944V166.643H60.2604V159.977Z" fill="white"/>
<path d="M80.3344 159.977H73.6684V166.643H80.3344V159.977Z" fill="white"/>
<path d="M86.9554 159.977H80.2894V166.643H86.9554V159.977Z" fill="white"/>
<path d="M100.331 159.977H93.6653V166.643H100.331V159.977Z" fill="white"/>
<path d="M140.311 159.977H133.645V166.643H140.311V159.977Z" fill="white"/>
<path d="M160.28 159.977H153.614V166.643H160.28V159.977Z" fill="white"/>
<path d="M167.004 159.977H160.338V166.643H167.004V159.977Z" fill="white"/>
<path d="M173.625 159.977H166.959V166.643H173.625V159.977Z" fill="white"/>
<path d="M180.293 159.977H173.627V166.643H180.293V159.977Z" fill="white"/>
<path d="M187.002 159.977H180.336V166.643H187.002V159.977Z" fill="white"/>
<path d="M193.638 159.977H186.972V166.643H193.638V159.977Z" fill="white"/>
<path d="M200.272 159.977H193.606V166.643H200.272V159.977Z" fill="white"/>
<path d="M213.648 159.977H206.982V166.643H213.648V159.977Z" fill="white"/>
<path d="M60.2604 166.66H53.5944V173.326H60.2604V166.66Z" fill="white"/>
<path d="M80.3344 166.659H73.6684V173.325H80.3344V166.659Z" fill="white"/>
<path d="M86.9554 166.659H80.2894V173.325H86.9554V166.659Z" fill="white"/>
<path d="M93.6667 166.659H87.0007V173.325H93.6667V166.659Z" fill="white"/>
<path d="M100.331 166.66H93.6653V173.326H100.331V166.66Z" fill="white"/>
<path d="M107.012 166.66H100.346V173.326H107.012V166.66Z" fill="white"/>
<path d="M113.661 166.659H106.995V173.325H113.661V166.659Z" fill="white"/>
<path d="M120.298 166.66H113.632V173.326H120.298V166.66Z" fill="white"/>
<path d="M126.948 166.659H120.282V173.325H126.948V166.659Z" fill="white"/>
<path d="M140.311 166.659H133.645V173.325H140.311V166.659Z" fill="white"/>
<path d="M160.28 166.659H153.614V173.325H160.28V166.659Z" fill="white"/>
<path d="M167.004 166.659H160.338V173.325H167.004V166.659Z" fill="white"/>
<path d="M193.638 166.659H186.972V173.325H193.638V166.659Z" fill="white"/>
<path d="M206.954 166.659H200.288V173.325H206.954V166.659Z" fill="white"/>
<path d="M213.648 166.659H206.982V173.325H213.648V166.659Z" fill="white"/>
<path d="M60.2604 173.325H53.5944V179.991H60.2604V173.325Z" fill="white"/>
<path d="M80.3352 173.317H73.6693V179.983H80.3352V173.317Z" fill="white"/>
<path d="M86.9554 173.325H80.2894V179.991H86.9554V173.325Z" fill="white"/>
<path d="M93.6663 173.325H87.0003V179.991H93.6663V173.325Z" fill="white"/>
<path d="M100.331 173.325H93.6653V179.991H100.331V173.325Z" fill="white"/>
<path d="M107.012 173.325H100.346V179.991H107.012V173.325Z" fill="white"/>
<path d="M113.662 173.325H106.996V179.991H113.662V173.325Z" fill="white"/>
<path d="M126.948 173.325H120.282V179.991H126.948V173.325Z" fill="white"/>
<path d="M133.643 173.325H126.977V179.991H133.643V173.325Z" fill="white"/>
<path d="M140.312 173.325H133.646V179.991H140.312V173.325Z" fill="white"/>
<path d="M146.976 173.325H140.31V179.991H146.976V173.325Z" fill="white"/>
<path d="M160.28 173.325H153.614V179.991H160.28V173.325Z" fill="white"/>
<path d="M167.006 173.325H160.34V179.991H167.006V173.325Z" fill="white"/>
<path d="M180.293 173.325H173.627V179.991H180.293V173.325Z" fill="white"/>
<path d="M193.637 173.325H186.971V179.991H193.637V173.325Z" fill="white"/>
<path d="M206.952 173.325H200.286V179.991H206.952V173.325Z" fill="white"/>
<path d="M60.2604 179.99H53.5944V186.656H60.2604V179.99Z" fill="white"/>
<path d="M73.6679 179.99H67.0019V186.656H73.6679V179.99Z" fill="white"/>
<path d="M93.6667 179.99H87.0007V186.656H93.6667V179.99Z" fill="white"/>
<path d="M126.948 179.99H120.282V186.656H126.948V179.99Z" fill="white"/>
<path d="M133.644 179.99H126.978V186.656H133.644V179.99Z" fill="white"/>
<path d="M140.311 179.99H133.645V186.656H140.311V179.99Z" fill="white"/>
<path d="M160.28 179.99H153.614V186.656H160.28V179.99Z" fill="white"/>
<path d="M167.006 179.99H160.34V186.656H167.006V179.99Z" fill="white"/>
<path d="M193.638 179.99H186.972V186.656H193.638V179.99Z" fill="white"/>
<path d="M200.272 179.99H193.606V186.656H200.272V179.99Z" fill="white"/>
<path d="M206.954 179.99H200.288V186.656H206.954V179.99Z" fill="white"/>
<path d="M213.648 179.99H206.982V186.656H213.648V179.99Z" fill="white"/>
<path d="M220.27 179.99H213.604V186.656H220.27V179.99Z" fill="white"/>
<path d="M60.2604 186.649H53.5944V193.315H60.2604V186.649Z" fill="white"/>
<path d="M66.9862 186.649H60.3203V193.315H66.9862V186.649Z" fill="white"/>
<path d="M73.6666 186.649H67.0006V193.315H73.6666V186.649Z" fill="white"/>
<path d="M80.3357 186.649H73.6697V193.315H80.3357V186.649Z" fill="white"/>
<path d="M86.9554 186.649H80.2894V193.315H86.9554V186.649Z" fill="white"/>
<path d="M100.331 186.649H93.6653V193.315H100.331V186.649Z" fill="white"/>
<path d="M140.311 186.649H133.645V193.315H140.311V186.649Z" fill="white"/>
<path d="M153.658 186.649H146.992V193.315H153.658V186.649Z" fill="white"/>
<path d="M160.28 186.649H153.614V193.315H160.28V186.649Z" fill="white"/>
<path d="M167.005 186.649H160.339V193.315H167.005V186.649Z" fill="white"/>
<path d="M173.625 186.649H166.959V193.315H173.625V186.649Z" fill="white"/>
<path d="M180.293 186.649H173.627V193.315H180.293V186.649Z" fill="white"/>
<path d="M187.002 186.649H180.336V193.315H187.002V186.649Z" fill="white"/>
<path d="M193.637 186.649H186.971V193.315H193.637V186.649Z" fill="white"/>
<path d="M60.2604 193.314H53.5944V199.98H60.2604V193.314Z" fill="white"/>
<path d="M66.9862 193.314H60.3203V199.98H66.9862V193.314Z" fill="white"/>
<path d="M80.3342 193.314H73.6682V199.98H80.3342V193.314Z" fill="white"/>
<path d="M93.6663 193.314H87.0003V199.98H93.6663V193.314Z" fill="white"/>
<path d="M107.012 193.314H100.346V199.98H107.012V193.314Z" fill="white"/>
<path d="M120.298 193.314H113.632V199.98H120.298V193.314Z" fill="white"/>
<path d="M133.645 193.314H126.979V199.98H133.645V193.314Z" fill="white"/>
<path d="M140.311 193.314H133.645V199.98H140.311V193.314Z" fill="white"/>
<path d="M146.976 193.314H140.31V199.98H146.976V193.314Z" fill="white"/>
<path d="M153.658 193.314H146.992V199.98H153.658V193.314Z" fill="white"/>
<path d="M160.28 193.314H153.614V199.98H160.28V193.314Z" fill="white"/>
<path d="M167.003 193.314H160.337V199.98H167.003V193.314Z" fill="white"/>
<path d="M173.625 193.314H166.959V199.98H173.625V193.314Z" fill="white"/>
<path d="M187.002 193.314H180.336V199.98H187.002V193.314Z" fill="white"/>
<path d="M213.648 193.314H206.982V199.98H213.648V193.314Z" fill="white"/>
<path d="M220.271 193.314H213.605V199.98H220.271V193.314Z" fill="white"/>
<path d="M73.6666 199.982H67.0006V206.648H73.6666V199.982Z" fill="white"/>
<path d="M107.012 199.982H100.346V206.648H107.012V199.982Z" fill="white"/>
<path d="M113.662 199.982H106.996V206.648H113.662V199.982Z" fill="white"/>
<path d="M126.948 199.982H120.282V206.648H126.948V199.982Z" fill="white"/>
<path d="M133.645 199.982H126.979V206.648H133.645V199.982Z" fill="white"/>
<path d="M140.311 199.982H133.645V206.648H140.311V199.982Z" fill="white"/>
<path d="M146.975 199.982H140.309V206.648H146.975V199.982Z" fill="white"/>
<path d="M153.658 199.982H146.992V206.648H153.658V199.982Z" fill="white"/>
<path d="M160.28 199.982H153.614V206.648H160.28V199.982Z" fill="white"/>
<path d="M167.005 199.982H160.339V206.648H167.005V199.982Z" fill="white"/>
<path d="M187.002 199.982H180.336V206.648H187.002V199.982Z" fill="white"/>
<path d="M193.637 199.982H186.971V206.648H193.637V199.982Z" fill="white"/>
<path d="M206.953 199.982H200.287V206.648H206.953V199.982Z" fill="white"/>
<path d="M213.648 199.982H206.982V206.648H213.648V199.982Z" fill="white"/>
<path d="M220.27 199.982H213.604V206.648H220.27V199.982Z" fill="white"/>
<path d="M93.6663 206.646H87.0003V213.312H93.6663V206.646Z" fill="white"/>
<path d="M113.661 206.646H106.995V213.312H113.661V206.646Z" fill="white"/>
<path d="M133.644 206.646H126.978V213.312H133.644V206.646Z" fill="white"/>
<path d="M153.658 206.646H146.992V213.312H153.658V206.646Z" fill="white"/>
<path d="M187.002 206.645H180.336V213.311H187.002V206.645Z" fill="white"/>
<path d="M193.638 206.646H186.972V213.312H193.638V206.646Z" fill="white"/>
<path d="M200.272 206.645H193.606V213.311H200.272V206.645Z" fill="white"/>
<path d="M206.953 206.646H200.287V213.312H206.953V206.646Z" fill="white"/>
<path d="M213.648 206.645H206.982V213.311H213.648V206.645Z" fill="white"/>
<path d="M220.271 206.646H213.605V213.312H220.271V206.646Z" fill="white"/>
<path d="M60.2604 213.312H53.5944V219.978H60.2604V213.312Z" fill="white"/>
<path d="M66.9862 213.312H60.3203V219.978H66.9862V213.312Z" fill="white"/>
<path d="M80.3342 213.319H73.6682V219.985H80.3342V213.319Z" fill="white"/>
<path d="M107.012 213.312H100.346V219.978H107.012V213.312Z" fill="white"/>
<path d="M113.661 213.313H106.995V219.979H113.661V213.313Z" fill="white"/>
<path d="M120.298 213.312H113.632V219.978H120.298V213.312Z" fill="white"/>
<path d="M133.644 213.313H126.978V219.979H133.644V213.313Z" fill="white"/>
<path d="M160.28 213.312H153.614V219.978H160.28V213.312Z" fill="white"/>
<path d="M167.006 213.312H160.34V219.978H167.006V213.312Z" fill="white"/>
<path d="M180.293 213.312H173.627V219.978H180.293V213.312Z" fill="white"/>
<path d="M187.002 213.312H180.336V219.978H187.002V213.312Z" fill="white"/>
<path d="M193.638 213.313H186.972V219.979H193.638V213.313Z" fill="white"/>
<path d="M39.9929 0H7.32949H0.3302V6.99929V39.6627V46.6619H7.32949H39.9929H46.9921V39.6627V6.99929V0H39.9929ZM39.9929 39.6627H7.32949V6.99929H39.9929V39.6627Z" fill="white"/>
<path d="M213.331 0H180.668H173.668V6.99929V39.6627V46.6619H180.668H213.331H220.33V39.6627V6.99929V0H213.331ZM213.331 39.6627H180.668V6.99929H213.331V39.6627Z" fill="white"/>
<path d="M39.9929 173.324H7.32949H0.3302V180.324V212.987V219.986H7.32949H39.9929H46.9921V212.987V180.324V173.324H39.9929ZM39.9929 212.987H7.32949V180.324H39.9929V212.987Z" fill="white"/>
<path d="M33.6605 13.3367H13.6625V33.3346H33.6605V13.3367Z" fill="white"/>
<path d="M206.969 13.3367H186.971V33.3346H206.969V13.3367Z" fill="white"/>
<path d="M33.6605 186.649H13.6625V206.647H33.6605V186.649Z" fill="white"/>
</svg>
