<svg width="1451" height="230" viewBox="0 0 1451 230" fill="none" xmlns="http://www.w3.org/2000/svg">
<rect width="152.993" height="150.153" rx="10" transform="matrix(0.974452 -0.22464 0.233567 0.972331 568.332 68.0898)" fill="#F5FAFF"/>
<path d="M746.635 180.205C743.285 170.057 731.667 148.436 709.282 148.896L683.283 150.036L657.607 155.964L633.803 166.277C613.544 175.637 612.922 200.081 614.514 210.633L746.633 180.207L746.635 180.205Z" fill="#CE4F37"/>
<path d="M654.12 73.1844C652.585 73.5076 646.434 74.9238 644.914 75.3041C620.933 80.3361 608.859 121.372 631.857 137.323C639.714 143.333 654.689 142.852 658.042 141.034C658.397 140.839 657.375 133.167 657.543 133.013C659.674 129.773 660.848 128.495 662.166 126.943C664.052 127.758 665.684 128.389 669.066 130.359C669.287 130.423 671.862 137.739 672.268 137.758C676.097 137.922 689.723 131.818 694.022 123.009C707.356 98.6928 677.876 67.2252 654.12 73.1844Z" fill="#5A5E7D"/>
<path d="M683.669 150.004C684.573 153.765 679.549 158.133 671.905 159.888C664.26 161.642 657.773 159.916 656.869 156.155L652.566 133.792L647.225 116.327L644.594 107.727C644.41 107.123 644.491 106.535 644.839 105.947C645.187 105.358 645.776 105.059 646.404 104.915L669.582 99.5951C670.14 99.467 670.728 99.466 671.246 99.7961C671.763 100.128 672.079 100.593 672.182 101.145L676.962 126.508L683.672 150.002L683.669 150.004Z" fill="#B17854"/>
<path d="M680.416 138.018L678.139 130.732L652.786 137.509L674.207 145.613C677.683 146.672 680.871 143.484 681.327 142.117L680.416 138.018Z" fill="#996748"/>
<path d="M660.452 103.92C660.452 103.92 660.45 103.914 660.449 103.907L660.434 103.891C660.442 103.904 660.448 103.912 660.454 103.921L660.452 103.92Z" fill="#CC8348"/>
<path d="M659.557 104.119C659.557 104.119 659.555 104.113 659.554 104.106L659.539 104.09C659.546 104.103 659.551 104.112 659.559 104.12L659.557 104.119Z" fill="#CC8348"/>
<path d="M672.661 112.789L673.107 114.649C673.33 115.556 673.091 116.812 672.688 117.639C672.284 118.468 671.449 119.27 670.695 119.447L662.319 121.419L653.923 123.309C653.169 123.479 652.055 123.125 651.316 122.56C650.578 121.994 649.794 120.974 649.579 120.066L649.133 118.206L645.77 118.98L649.763 134.138C650.135 135.709 650.986 137.07 652.26 138.046C654.518 140.624 672.584 142.542 678.883 131.891C679.579 130.461 679.491 128.556 679.111 126.988L676.027 112.014L672.661 112.789Z" fill="#B17854"/>
<path d="M647.035 116.416C649.954 118.54 652.691 123.041 651.181 125.037C649.67 127.034 644.482 125.77 641.562 123.649C638.642 121.526 639.098 119.346 640.609 117.349C642.119 115.353 644.115 114.295 647.035 116.418L647.035 116.416Z" fill="#B17854"/>
<path d="M672.961 110.401C671.314 113.576 670.912 118.799 673.173 119.928C675.434 121.056 679.503 117.661 681.152 114.488C682.798 111.314 681.399 109.561 679.138 108.433C676.877 107.304 674.608 107.229 672.961 110.403L672.961 110.401Z" fill="#B17854"/>
<path d="M643.447 115.18L646.348 118.192C647.092 118.7 647.998 118.468 647.345 116.7L646.182 113.245L643.447 115.179L643.447 115.18Z" fill="#5A5E7D"/>
<path d="M676.663 107.49L675.438 111.451C675.004 112.229 674.088 112.416 673.865 110.549L673.334 106.949L676.663 107.488L676.663 107.49Z" fill="#5A5E7D"/>
<path d="M1441.08 43.0218L1273.2 2.55643C1267.83 1.26226 1262.39 4.55537 1261.04 9.9118L1219.81 174.091C1218.46 179.447 1221.72 184.838 1227.09 186.133L1394.97 226.598C1400.34 227.892 1405.79 224.599 1407.13 219.243L1448.37 55.0637C1449.71 49.7073 1446.45 44.3159 1441.08 43.0218Z" fill="#F5FAFF"/>
<path d="M1321.66 62.4184C1327.42 73.8952 1310.24 81.0897 1300.92 119.023C1283.39 180.058 1350.77 164.034 1340.94 213.008L1387.05 224.669C1390.8 210.663 1403.6 179.469 1388.56 156.416C1378.23 142.218 1374.03 132.734 1373.95 113.879C1378.35 83.0829 1358.09 46.4772 1321.66 62.4184Z" fill="#FBBC12"/>
<path d="M1358.27 99.2764C1360.5 114.363 1346.99 128.867 1361.27 143.946C1388.31 167.284 1381.69 198.024 1371.61 218.955L1319.69 172.095L1335.62 112.695L1358.27 99.2742L1358.27 99.2764Z" fill="#FFC05A"/>
<path d="M1367.35 163.481C1367.24 163.423 1338.38 145.775 1338.38 145.775L1310.78 139.128C1310.78 139.128 1276.87 141.661 1276.74 141.661C1256.32 145.288 1248.02 170.313 1234.34 187.854L1383.16 223.692C1379.31 201.93 1383.74 175.975 1367.35 163.481L1367.35 163.481Z" fill="#62D5FA"/>
<path d="M1337.7 147.984L1342.09 119.619L1319.44 114.171L1310.91 141.553C1305.72 160.334 1333.04 168.532 1337.7 147.984Z" fill="#E38C46"/>
<path d="M1339.42 134.376L1342.13 119.466L1319.49 114.015L1317.56 120.257L1322.11 124.356L1339.42 134.376Z" fill="#C06827"/>
<path d="M1351.81 108.254C1348.98 106.201 1349.19 101.262 1352.29 97.2266C1355.38 93.1867 1360.17 91.5773 1363 93.6325C1365.83 95.6839 1365.62 100.622 1362.53 104.661C1359.44 108.697 1354.64 110.306 1351.81 108.254Z" fill="#D17D3B"/>
<path d="M1358.99 111.686C1358.61 113.197 1357.06 114.12 1355.51 113.749C1353.97 113.377 1353.03 111.851 1353.41 110.341C1353.78 108.83 1355.34 107.907 1356.89 108.278C1358.43 108.649 1359.37 110.175 1358.99 111.686Z" fill="white"/>
<path d="M1347.3 70.8448C1345.29 70.3226 1343.41 69.8618 1341.63 69.4545L1341.58 69.4446C1341.54 69.4311 1341.49 69.4186 1341.44 69.4066L1341.29 69.3702C1341.27 69.3692 1341.26 69.3661 1341.25 69.363C1339.47 68.915 1337.59 68.4689 1335.56 68.0192C1329.1 66.8501 1319.09 68.739 1316.29 79.9393C1313.46 86.126 1307.07 105.044 1312.26 112.953C1315.34 119.764 1323.4 125.286 1326.71 126.177L1327.62 126.358C1331.06 127.016 1341.38 125.514 1346.67 121.233C1355.09 115.246 1359.25 96.251 1358.73 90.1516C1359.45 78.7062 1353.32 72.7087 1347.3 70.8453L1347.3 70.8448Z" fill="#E38C46"/>
<path d="M1357.9 56.0469C1356.63 61.1306 1351.38 64.2369 1346.19 62.987C1341 61.737 1337.83 56.6053 1339.1 51.5216C1340.38 46.4379 1345.62 43.3316 1350.81 44.5815C1356 45.8314 1359.18 50.9653 1357.9 56.0469Z" fill="#FBBC12"/>
<path d="M1351.32 71.3798C1346.6 77.8047 1344.08 75.6 1328.08 82.8033C1298.33 99.8735 1323.89 162.805 1290.61 200.843L1247.01 190.374C1260.84 175.648 1287.13 149.22 1287.81 122.953C1288.51 92.1379 1299.19 69.375 1323.68 61.6712L1351.32 71.3777L1351.32 71.3798Z" fill="#FBBC12"/>
<rect width="178.023" height="174.86" rx="10" transform="matrix(0.973257 -0.229764 0.238871 0.971042 900.556 57.5935)" fill="#F5FAFF"/>
<path d="M988.62 81.6245C983.983 85.2488 980.727 90.0898 978.426 95.3529C974.661 102.874 975.921 114.058 979.307 119.15C998.069 144.862 1031.38 127 1032.4 106.959C1034.07 99.1673 1026.06 87.1358 1021.22 83.3877C1019.1 81.639 1016.72 80.0964 1014.2 78.9318C1011.07 77.4842 1007.83 76.8347 1004.39 76.5931C998.835 76.2034 992.926 78.2617 988.621 81.6263L988.62 81.6245Z" fill="#785E8A"/>
<path d="M1018.65 117.103C1032.34 122.274 1041.78 129.776 1045.35 137.119C1039.34 147.828 1031.35 150.101 1024.41 152.752C1016.21 141.483 1015.46 131.011 1014.87 120.431L1018.65 117.103Z" fill="#785E8A"/>
<path d="M1057.85 147.182C1057.74 147.18 1026.9 144.346 1026.9 144.346L1001.85 150.255C1001.85 150.255 975.702 166.528 975.6 166.582C960.747 178.091 964.882 202.559 961.44 222.846L1096.53 190.983C1084.07 174.449 1076.41 150.81 1057.85 147.183L1057.85 147.182Z" fill="#CE4F37"/>
<path d="M1026.94 146.422L1020.16 128L998.462 129.085L1002.64 152.17C1022.9 173.543 1022.9 173.543 1026.94 146.423L1026.94 146.422Z" fill="#EFB077"/>
<path d="M1023.29 136.197L1018.79 124.106L998.241 128.952L998.689 131.643L1011.45 135.287L1023.29 136.197Z" fill="#D08D55"/>
<path d="M990.904 114.977C992.076 116.639 991.652 118.916 989.956 120.064C988.261 121.212 985.936 120.797 984.763 119.136L981.537 114.562C980.365 112.901 980.789 110.624 982.485 109.476C984.18 108.328 986.505 108.743 987.678 110.404L990.904 114.977Z" fill="#D08D55"/>
<path d="M1020.56 107.925C1020.29 109.927 1021.73 111.765 1023.77 112.033C1025.81 112.3 1027.69 110.894 1027.96 108.893L1028.71 103.383C1028.98 101.382 1027.54 99.5429 1025.5 99.2759C1023.46 99.0088 1021.58 100.414 1021.31 102.416L1020.56 107.925Z" fill="#D08D55"/>
<path d="M1000.11 87.7358C995.917 95.1678 991.143 102.284 984.967 108.626C988.165 116.733 993.282 127.366 995.718 128.983C1000.64 132.702 1008.72 134.125 1011.82 133.427L1012.64 133.234C1015.66 132.249 1021.79 126.886 1024.02 121.203C1025.11 118.853 1023.7 108.418 1022.33 100.202C1014.68 96.951 1007.27 92.8153 1000.12 87.7335L1000.11 87.7358Z" fill="#EFB077"/>
<path d="M987.883 118.325C988.01 118.843 987.685 119.364 987.156 119.489C986.628 119.614 986.096 119.294 985.969 118.777C985.841 118.259 986.167 117.737 986.695 117.613C987.223 117.488 987.755 117.807 987.883 118.325Z" fill="white"/>
<path d="M1026.67 109.124C1026.8 109.642 1026.47 110.163 1025.94 110.288C1025.41 110.412 1024.88 110.093 1024.75 109.575C1024.63 109.057 1024.95 108.536 1025.48 108.412C1026.01 108.287 1026.54 108.606 1026.67 109.124Z" fill="white"/>
<path d="M1224.35 61.2537L1107.3 68.5693C1101.79 68.9138 1097.61 73.6608 1097.97 79.172L1105.41 193.464C1105.77 198.976 1110.53 203.164 1116.04 202.819L1233.09 195.504C1238.6 195.159 1242.78 190.412 1242.42 184.901L1234.98 70.6087C1234.62 65.0976 1229.86 60.9092 1224.35 61.2537Z" fill="#F5FAFF"/>
<path d="M1236.19 195.078C1236.23 194.981 1236.25 194.884 1236.24 194.778C1235.47 187.33 1227.62 163.435 1207.95 160.43L1185.79 157.593C1185.16 157.512 1184.53 157.492 1183.89 157.532L1162.26 158.9C1161.64 158.939 1161.01 159.039 1160.4 159.196L1139.59 164.556C1139.06 164.693 1138.54 164.872 1138.04 165.109C1119.11 174.194 1116.26 202.692 1116.71 202.694L1235.68 195.427C1235.9 195.414 1236.09 195.279 1236.19 195.078V195.078Z" fill="#9F73C2"/>
<path d="M1159.96 141.804C1159.96 141.804 1159.96 141.805 1159.96 141.806L1160.95 158.311C1161.2 162.398 1165.7 165.466 1172.59 165.077C1179.48 164.687 1183.58 161.131 1183.34 157.044L1182.95 150.512C1182.62 145.001 1177.88 140.789 1172.37 141.101L1159.96 141.804V141.804Z" fill="#F29E57"/>
<path d="M1177.71 158.007C1180.61 158.957 1183.36 157.681 1183.18 154.633V154.633L1182.79 148.102C1182.46 142.591 1177.72 138.379 1172.21 138.691L1166.35 139.023C1162.74 139.228 1159.98 142.327 1160.2 145.943V145.943C1160.32 148.089 1161.5 150.038 1163.33 151.16L1169.91 155.173C1170.57 155.578 1171.28 155.904 1172.02 156.146L1177.71 158.007Z" fill="#D38448"/>
<path d="M1169.66 107.368C1169.66 107.37 1169.67 107.369 1169.67 107.367C1169.67 107.366 1169.67 107.365 1169.66 107.364C1169.66 107.364 1169.66 107.364 1169.66 107.364V107.364C1169.66 107.362 1169.66 107.363 1169.66 107.366C1169.66 107.366 1169.66 107.367 1169.66 107.368Z" fill="#CF8548"/>
<path d="M1170.41 114.222C1170.41 114.224 1170.41 114.223 1170.41 114.221V114.221C1170.41 114.22 1170.41 114.22 1170.41 114.219L1170.41 114.219C1170.41 114.217 1170.41 114.22 1170.41 114.222V114.222Z" fill="#CF8548"/>
<path d="M1170.1 114.254C1170.1 114.254 1170.1 114.254 1170.1 114.253C1170.1 114.252 1170.1 114.247 1170.1 114.242C1170.1 114.241 1170.1 114.24 1170.1 114.239L1170.09 114.222C1170.09 114.234 1170.1 114.243 1170.1 114.253C1170.1 114.253 1170.1 114.254 1170.1 114.254V114.254Z" fill="#CF8548"/>
<path d="M1195.37 114.75V114.75C1194.88 114.371 1194.69 113.716 1194.9 113.133C1195.7 110.851 1195.68 108.949 1195.14 107.429C1193.79 103.605 1190.55 99.3959 1187.35 96.8998C1186.44 96.1856 1185.34 95.695 1184.18 95.4235C1179.95 94.4359 1174.99 94.016 1170.78 92.9425C1166.96 91.9686 1162.97 92.7136 1160 95.3712C1158.66 96.565 1156.95 97.3511 1155.15 97.3726V97.3726C1151.66 97.4126 1148.72 99.6514 1147.07 102.504C1146.51 103.474 1146.22 104.558 1146.16 105.661C1146.01 108.341 1145.44 111.383 1144.14 113.727V113.727C1142.81 116.103 1142.62 118.741 1143.35 121.31C1143.52 121.904 1143.73 122.462 1143.97 122.988C1146.06 127.573 1147.32 133.494 1150.43 137.458C1151.75 139.14 1154.05 140.055 1156.89 140.388C1163.53 141.168 1186.59 138.525 1187.72 138.453C1191.11 138.233 1194.02 136.281 1194.92 133.288V133.288C1195.69 130.721 1196.47 127.704 1197.68 125.312C1199.37 121.943 1199.12 117.449 1195.37 114.75Z" fill="#444869"/>
<path d="M1161.12 125.749C1161.65 128.043 1160.18 130.323 1157.84 130.841C1155.5 131.359 1153.18 129.919 1152.65 127.625L1151.24 121.501C1150.71 119.207 1152.18 116.927 1154.52 116.409C1156.86 115.892 1159.19 117.332 1159.71 119.626L1161.12 125.749Z" fill="#D67F43"/>
<path d="M1181.2 124.485C1180.98 126.826 1182.73 128.904 1185.12 129.124C1187.51 129.344 1189.63 127.625 1189.85 125.283L1190.45 119.034C1190.68 116.692 1188.92 114.615 1186.53 114.394C1184.14 114.174 1182.02 115.894 1181.8 118.235L1181.2 124.485Z" fill="#D67F43"/>
<path d="M1183.17 110.06C1183.17 110.06 1183.17 110.06 1183.17 110.061C1168.35 114.207 1166.21 106.377 1160.1 108.96C1157.71 109.967 1156.55 112.586 1156.36 115.167C1155.81 122.602 1155.66 132.462 1157.16 139.735C1159.01 147.593 1164.2 153.236 1171.82 152.551C1172.36 152.503 1172.91 152.468 1173.45 152.449C1181.11 152.172 1185.52 145.926 1186.33 137.901C1186.95 129.285 1184.87 117.609 1183.16 110.06C1183.16 110.06 1183.16 110.059 1183.17 110.06V110.06Z" fill="#F29E57"/>
<rect width="141.874" height="138.429" rx="10" transform="matrix(0.994102 0.108457 -0.11294 0.993601 154.748 54.3557)" fill="#F5FAFF"/>
<path d="M243.027 166.062C242.952 166.033 223.432 154.786 223.432 154.786L206.582 153.442C206.582 153.442 184.981 159.701 184.902 159.714C172.463 163.978 169.21 181.491 162.051 194.386L257.518 204.812C253.434 190.69 254.202 172.905 243.025 166.062L243.027 166.062Z" fill="#31CE5D"/>
<path d="M223.367 156.783L223.16 143.947L208.643 142.358L206.197 154.914C208.857 159.366 217.47 161.511 223.368 156.784L223.367 156.783Z" fill="#EFB077"/>
<path d="M223.076 155.326L223.076 143.817L208.56 142.228L207.607 148.011L223.076 155.326Z" fill="#D08D55"/>
<path d="M207.124 131.473C207.487 132.815 206.665 134.188 205.288 134.541C203.911 134.893 202.501 134.092 202.138 132.75L201.139 129.057C200.776 127.715 201.598 126.341 202.975 125.989C204.351 125.637 205.762 126.438 206.125 127.78L207.124 131.473Z" fill="#D08D55"/>
<path d="M228.098 133.768C227.442 134.998 227.934 136.515 229.198 137.156C230.461 137.797 232.017 137.321 232.674 136.09L234.48 132.704C235.137 131.474 234.644 129.957 233.381 129.315C232.118 128.674 230.561 129.151 229.905 130.381L228.098 133.768Z" fill="#D08D55"/>
<path d="M219.654 116.019C215.145 119.855 209.922 112.83 204.803 126.033C204.936 132.001 205.711 140.041 206.905 141.644C209.213 145.175 214.116 147.947 216.3 148.208L216.879 148.271C219.076 148.329 224.345 146.272 227.155 143.114C228.429 141.847 230.013 134.785 231.095 129.166C231.083 120.647 223.086 120.942 219.656 116.018L219.654 116.019Z" fill="#EFB077"/>
<path d="M204.341 132.948C204.299 133.312 203.963 133.573 203.59 133.533C203.217 133.492 202.948 133.164 202.99 132.8C203.031 132.437 203.367 132.175 203.74 132.216C204.113 132.256 204.382 132.584 204.341 132.948Z" fill="white"/>
<path d="M231.778 135.948C231.737 136.311 231.401 136.573 231.028 136.532C230.655 136.491 230.386 136.163 230.427 135.8C230.469 135.436 230.805 135.174 231.178 135.215C231.551 135.256 231.82 135.584 231.778 135.948Z" fill="white"/>
<path d="M234.03 116.691C231.504 115.696 228.937 113.17 226.424 110.228C221.717 104.154 212.459 103.825 208.944 112.818C201.899 111.689 201.994 117.582 201.922 125.596L203.012 127.332L204.739 131.645C205.726 125.596 207.688 122.136 209.224 120.299C215.883 114.035 220.824 122.565 228.916 124.233C229.737 126.45 230.729 129.873 230.1 134.473L233.109 131.084L234.827 129.043C239.117 119.787 237.421 117.84 234.032 116.691L234.03 116.691Z" fill="#524F54"/>
<rect width="190.183" height="186.493" rx="10" transform="matrix(0.99182 0.127658 -0.132913 0.991126 754.211 10.4104)" fill="#F5FAFF"/>
<path d="M893.188 216.303C893.718 205.356 890.53 180.436 868.8 172.905L843.337 164.74L816.413 161.293L789.67 162.727C766.694 164.508 757.048 187.781 754.676 198.49L893.186 216.304L893.188 216.303Z" fill="#31CE5D"/>
<path d="M821.317 142.477L818.756 160.748C818.122 165.271 822.371 169.581 829.993 170.613C837.616 171.646 842.892 168.623 843.526 164.1L846.087 145.828L821.315 142.476L821.317 142.477Z" fill="#F29E57"/>
<path d="M824.327 151.681C829.336 157.146 844.144 158.272 844.366 156.691L846.449 143.165L821.677 139.813L820.685 146.672L824.327 151.681Z" fill="#E28C4B"/>
<path d="M841.08 103.58C841.08 103.58 841.081 103.571 841.081 103.561L841.07 103.531C841.074 103.551 841.077 103.564 841.08 103.58Z" fill="#CF8548"/>
<path d="M840.326 112.158C840.326 112.158 840.327 112.149 840.328 112.141L840.318 112.114C840.322 112.131 840.324 112.144 840.326 112.156L840.326 112.158Z" fill="#CF8548"/>
<path d="M839.927 112.104C839.927 112.104 839.928 112.096 839.925 112.087L839.917 112.06C839.92 112.078 839.923 112.09 839.927 112.103L839.927 112.104Z" fill="#CF8548"/>
<path d="M825.247 124.297C825.331 126.983 823.126 129.214 820.323 129.277C817.52 129.342 815.179 127.216 815.096 124.532L814.872 117.364C814.787 114.678 816.992 112.449 819.795 112.383C822.598 112.318 824.939 114.445 825.022 117.131L825.246 124.298L825.247 124.297Z" fill="#D67F43"/>
<path d="M848.486 127.679C847.694 130.253 849.234 132.967 851.925 133.738C854.616 134.512 857.439 133.051 858.229 130.477L860.34 123.611C861.13 121.037 859.591 118.324 856.901 117.552C854.21 116.779 851.387 118.239 850.597 120.813L848.486 127.679Z" fill="#D67F43"/>
<path d="M854.382 109.533C836.147 101.932 836.924 95.1799 823.796 104.931C821.173 113.189 817.988 124.913 818.061 135.033C818.409 144.565 822.958 153.504 832.978 152.138C841.176 156.237 849.087 148.52 851.942 139.401C854.62 129.888 854.615 118.362 854.38 109.533L854.382 109.533Z" fill="#F29E57"/>
<path d="M858.541 100.297C851.146 89.2592 831.875 84.6738 827.904 95.9014C819.47 94.3027 819.104 103.411 818.722 113.099C818.986 113.061 819.733 113.659 821.101 113.839L820.172 119.913L823.076 120.383C824.474 113.182 826.043 107.181 827.959 105.011C836.2 97.6565 841.837 108.088 851.508 110.375C852.415 113.083 852.205 118.343 851.268 123.977L854.185 124.353L854.455 117.268L857.08 117.709C861.897 109.292 861.961 105.052 858.543 100.297L858.541 100.297Z" fill="#FBBC12"/>
<path d="M841.655 135.783C841.509 136.871 840.48 137.581 839.346 137.435L831.304 136.401C830.17 136.255 829.362 135.309 829.507 134.221C829.653 133.133 830.684 132.424 831.817 132.569L839.859 133.603C840.993 133.749 841.801 134.695 841.655 135.783Z" fill="#F29E57"/>
<path d="M601.131 80.1014L485.254 62.1654C479.797 61.3206 474.659 65.0558 473.78 70.5081L455.527 183.682C454.648 189.134 458.36 194.239 463.818 195.084L579.694 213.02C585.152 213.865 590.29 210.13 591.169 204.677L609.421 91.5035C610.301 86.0511 606.589 80.9462 601.131 80.1014Z" fill="#F5FAFF"/>
<path d="M579.636 212.825L572.432 172.398C571.434 167.558 567.366 163.895 561.973 162.258C561.891 162.216 561.806 162.192 561.722 162.151L495.976 152.042C495.843 152.062 495.71 152.077 495.577 152.1C490.203 152.205 485.476 154.45 483.102 158.584L463.546 194.867L579.634 212.825L579.636 212.825Z" fill="#B2ECFF"/>
<path d="M573.062 167.559C567.512 154.337 553.03 151.9 554.785 136.054C558.394 128.754 559.669 121.951 559.949 115.364C560.097 104.887 555.998 94.8661 552.024 91.8312C548.178 88.0172 537.185 84.5705 529.178 87.9538C521.157 91.8485 515.871 98.7243 513.208 108.108C511.194 114.922 510.833 121.646 512.533 129.568C508.814 144.251 494.664 143.285 485.406 153.95C482.542 157.692 479.898 161.647 478.592 166.908C504.345 188.635 534.949 197.949 575.446 181.946C575.867 176.548 574.603 171.986 573.061 167.56L573.062 167.559Z" fill="#62D5FA"/>
<path d="M522.262 129.171C523.498 138.935 521.212 152.567 528.758 155.393C534.839 157.039 539.008 143.951 543.656 133.376L522.26 129.171L522.262 129.171Z" fill="#427F93"/>
<path d="M519.075 125.754C516.744 125.392 515.281 122.414 515.815 119.115C516.349 115.817 518.68 113.429 521.012 113.791C523.345 114.153 524.807 117.132 524.273 120.428C523.739 123.725 521.408 126.116 519.075 125.754ZM520.789 115.172C518.995 114.894 517.577 116.789 517.166 119.325C516.756 121.861 517.505 124.094 519.299 124.373C521.093 124.651 522.369 122.734 522.78 120.197C523.191 117.659 522.581 115.451 520.789 115.172Z" fill="#FBBC12"/>
<path d="M548.56 130.333C546.227 129.971 544.766 126.993 545.3 123.694C545.834 120.396 548.165 118.008 550.497 118.37C552.83 118.732 554.292 121.711 553.758 125.007C553.224 128.304 550.893 130.695 548.56 130.333ZM550.273 119.752C548.48 119.473 547.062 121.368 546.651 123.904C546.24 126.44 546.99 128.673 548.784 128.952C550.578 129.23 551.854 127.313 552.265 124.776C552.676 122.238 552.066 120.03 550.273 119.752Z" fill="#FBBC12"/>
<path d="M538.79 96.0623C537.282 94.7571 522.765 98.0399 521.959 106.143C521.162 110.915 520.672 126.737 522.254 129.172C524.517 133.185 529.747 136.651 532.162 137.139L532.811 137.216C535.262 137.483 541.325 135.796 544.746 132.665C547.019 130.828 551.55 115.634 552.299 110.855C554.257 103.301 542.75 96.4306 538.79 96.0639L538.79 96.0623Z" fill="#F4A762"/>
<path d="M522.329 104.473C526.003 106.081 527.668 104.041 531.633 100.636C535.21 97.2006 543.584 98.2853 545.871 103.109C547.941 107.071 547.94 108.778 552.369 108.953C554.422 91.9823 525.277 88.4294 522.329 104.473Z" fill="#427F93"/>
<rect width="194.053" height="190.084" rx="10" transform="matrix(0.995755 -0.0920535 0.0958682 0.995393 258.882 35.3201)" fill="#F5FAFF"/>
<path d="M448.537 208.807C446.374 196.782 436.843 170.46 412.186 167.484L383.456 164.713L354.366 167.421L326.678 175.391C303.025 182.836 298.688 210.445 298.86 222.654L448.535 208.809L448.537 208.807Z" fill="#F2A21D"/>
<path d="M365.384 106.705C365.384 106.705 365.383 106.698 365.38 106.687L365.367 106.663C365.374 106.68 365.379 106.691 365.386 106.705L365.384 106.705Z" fill="#CF8548"/>
<path d="M351.24 144.762L353.532 168.455C354.005 173.342 360.595 176.726 370.529 175.804C380.463 174.882 386.287 170.344 385.814 165.458L383.522 141.766L351.24 144.762Z" fill="#F6A55C"/>
<path d="M385.647 160.421L383.926 142.628L352.169 147.728L377.643 166.685C383.928 169.445 385.862 162.641 385.647 160.421Z" fill="#D18343"/>
<path d="M374.882 101.237L353.992 103.176C350.289 103.52 347.572 106.738 347.923 110.363L350.736 139.443C351.087 143.069 354.372 145.73 358.075 145.386L378.965 143.447C382.668 143.103 385.385 139.885 385.034 136.26L382.221 107.18C381.87 103.554 378.584 100.893 374.882 101.237Z" fill="#F6A55C"/>
<path d="M382.715 125.558C382.642 127.709 384.363 129.514 386.561 129.586C388.759 129.657 390.6 127.971 390.674 125.821L390.962 117.377C391.037 115.224 389.314 113.421 387.116 113.348C384.92 113.276 383.077 114.962 383.004 117.115L382.715 125.56L382.715 125.558Z" fill="#F6A55C"/>
<path d="M366.558 114.897C366.558 114.897 366.558 114.889 366.557 114.88L366.541 114.857C366.548 114.873 366.553 114.884 366.558 114.897Z" fill="#CF8548"/>
<path d="M350.841 128.509C351.325 130.609 349.98 132.698 347.835 133.173C345.69 133.647 343.558 132.33 343.074 130.23L341.171 121.99C340.687 119.889 342.032 117.802 344.177 117.325C346.32 116.851 348.453 118.168 348.938 120.269L350.839 128.511L350.841 128.509Z" fill="#F6A55C"/>
<path d="M385.31 116.1L381.622 116.487L382.52 125.589C382.628 126.686 382.102 128.123 381.448 129.032C380.792 129.944 379.602 130.76 378.632 130.852L367.178 131.966L356.203 132.933C355.231 133.02 353.907 132.438 353.086 131.664C352.269 130.89 351.476 129.577 351.373 128.48L350.509 119.375L346.328 119.718L347.929 136.938C348.508 142.272 354.825 154.39 356.518 154.988C357.931 156.323 360.184 157.176 361.859 157.035L376.659 155.647C378.331 155.477 380.381 154.232 381.513 152.661C383.267 150.911 387.933 136.625 387.038 133.304L385.31 116.1Z" fill="#B86C26"/>
<path d="M366.186 114.932C366.186 114.932 366.186 114.925 366.183 114.916L366.169 114.892C366.176 114.909 366.181 114.92 366.188 114.932L366.186 114.932Z" fill="#CF8548"/>
<path d="M383.679 97.1646C379.983 96.5144 375.791 93.7972 371.551 90.501C363.449 83.5617 350.859 85.6758 348.707 98.8492C338.874 99.2651 340.701 107.234 342.913 118.127L345.729 117.976L346.827 125.767L351.071 125.373C350.66 116.894 349.697 111.838 351.242 108.92C358.422 98.5803 367.549 108.786 378.95 108.812C380.698 111.593 381.783 116.003 382.261 122.417L385.869 122.157L385.271 113.903L388.314 113.702C391.436 99.9588 388.586 97.7857 383.681 97.1644L383.679 97.1646Z" fill="#4C3B34"/>
<path d="M374.842 138.036C374.976 139.425 373.934 140.659 372.516 140.79L362.793 141.689C361.375 141.821 360.116 140.8 359.982 139.411C359.848 138.022 360.889 136.789 362.307 136.658L372.031 135.758C373.449 135.627 374.708 136.647 374.842 138.036Z" fill="#F6A55C"/>
<path d="M9.76688 73.7371L133.112 46.6258C138.506 45.4401 143.878 48.8433 145.11 54.2268L172.698 174.732C173.93 180.116 170.557 185.441 165.162 186.627L41.8173 213.738C36.4232 214.924 31.0513 211.521 29.8189 206.137L2.23159 85.6317C0.999132 80.2481 4.3728 74.9227 9.76688 73.7371Z" fill="#F5FAFF"/>
<path d="M58.621 171.055C58.7131 171.014 85.8952 155.835 85.8952 155.835L102.606 152.177C102.606 152.177 131.004 155.187 131.105 155.187C147.109 157.591 152.707 175.049 162.838 187.235L43.7888 213.298C47.6779 198.043 45.1798 179.907 58.6227 171.055L58.621 171.055Z" fill="#9F73C2"/>
<path d="M80.2538 135.277L86.4062 160.937C105.621 199.858 111.62 176.97 105.297 158.29L99.8782 142.967L80.2554 135.278L80.2538 135.277Z" fill="#D08B6F"/>
<path d="M62.3303 127.782C64.5462 128.831 65.5655 130.406 66.1227 132.098C66.8752 134.384 69.7681 136.357 72.1288 136.013C74.0614 135.732 75.5682 136.318 76.7115 137.577C77.6831 138.646 79.8184 138.973 81.0444 138.192C83.0624 136.906 84.6065 136.88 85.74 137.921C88.2547 140.23 92.4728 136.057 95.6774 134.232C101.011 131.197 107.267 126.788 105.293 121.483C104.621 119.681 105.03 117.841 106.234 116.63C107.434 115.422 107.093 112.964 106.109 111.561C105.11 110.138 104.315 108.653 104.966 106.883C105.643 105.047 104.102 102.462 102.236 101.549C100.868 100.879 99.6125 100.092 99.4435 98.1796C99.2728 96.254 96.8032 94.3539 94.9057 94.6209C93.0123 94.8883 91.3775 93.8347 89.8416 92.3072C88.3926 90.8668 85.5534 90.1119 83.7854 91.1534C82.2203 92.0756 80.2545 91.9279 78.1469 91.4512C76.7305 91.1301 74.8585 91.4613 73.9066 92.5748C72.5347 94.1785 70.8263 94.9521 68.8888 95.0975C67.2343 95.223 65.4231 96.5988 65.1392 98.1388C64.7958 100.002 63.722 101.422 61.8127 102.3C60.0596 103.106 58.8517 105.63 59.4078 107.426C59.9872 109.3 59.6998 111.023 58.3485 112.525C57.054 113.963 57.3874 116.706 58.5343 118.288C59.5657 119.71 60.369 121.196 59.7877 122.953C59.2276 124.645 60.6235 126.973 62.3301 127.781L62.3303 127.782Z" fill="#50598E"/>
<path d="M44.8963 107.773C46.3725 108.568 47.0125 109.679 47.3319 110.855C47.7631 112.445 49.6685 113.893 51.2935 113.741C52.6249 113.616 53.6331 114.069 54.369 114.969C54.9947 115.734 56.4416 116.032 57.3078 115.541C58.7346 114.734 59.7903 114.77 60.5279 115.52C62.1623 117.186 65.197 114.482 67.4546 113.347C71.2103 111.459 75.6472 108.664 74.4896 104.969C74.096 103.714 74.4422 102.472 75.3097 101.686C76.1735 100.901 76.0301 99.2101 75.4084 98.2164C74.7781 97.2086 74.2878 96.1662 74.7973 94.9799C75.3265 93.7476 74.3681 91.9292 73.1252 91.2387C72.2148 90.7335 71.3852 90.1503 71.3389 88.838C71.2931 87.5162 69.6731 86.1305 68.3659 86.2475C67.0613 86.3638 65.9835 85.5863 64.988 84.4901C64.05 83.454 62.1369 82.8396 60.8907 83.4897C59.7878 84.0655 58.4495 83.8952 57.0264 83.4963C56.0699 83.2281 54.7781 83.3886 54.0876 84.1163C53.092 85.1642 51.8962 85.6327 50.5659 85.6661C49.4313 85.693 48.1424 86.5712 47.8933 87.6135C47.591 88.8742 46.8049 89.8079 45.4677 90.3409C44.2396 90.8299 43.3227 92.5131 43.6376 93.7601C43.9661 95.0606 43.7059 96.2289 42.7276 97.2086C41.7904 98.1457 41.9183 100.034 42.6453 101.153C43.2989 102.162 43.7937 103.206 43.3321 104.386C42.8881 105.523 43.7577 107.162 44.894 107.775L44.8963 107.773Z" fill="#50598E"/>
<path d="M100.896 111.713C101.696 115.059 102.766 117.736 105.46 122.158C107.623 127.269 106.747 133.662 103.665 139.998C100.973 144.736 92.062 144.463 88.2945 142.69C79.105 138.598 77.7801 134.122 77.5186 124.407C72.5973 113.291 76.7504 109.02 82.5366 108.533C87.4323 108.093 90.1925 107.219 92.103 106.164C94.7219 104.717 98.5708 104.234 100.896 111.713Z" fill="#D08B6F"/>
<path d="M70.7349 123.28C69.3674 125.349 70.6679 128.557 73.6401 130.446C76.6124 132.334 78.623 131.378 79.9905 129.31C81.358 127.241 81.5642 124.841 78.592 122.953C75.6197 121.064 72.1024 121.211 70.7349 123.28Z" fill="#D08B6F"/>
<path d="M99.8523 142.975C94.2093 144.857 88.513 143.241 85.8329 140.952C91.8058 148.392 99.5125 148.093 101.447 147.467L99.8525 142.976L99.8523 142.975Z" fill="#AE7159"/>
<path d="M76.3747 129.831C75.7213 129.974 75.0734 129.57 74.9276 128.93C74.7817 128.289 75.1931 127.654 75.8465 127.512C76.4999 127.369 77.1478 127.773 77.2936 128.413C77.4395 129.054 77.0281 129.689 76.3747 129.831Z" fill="#FFCA6E"/>
</svg>
