<svg width="31" height="32" viewBox="0 0 31 32" fill="none" xmlns="http://www.w3.org/2000/svg">
<g clip-path="url(#clip0_1595_2573)">
<path d="M2.67258 24.0604C2.74034 24.1326 2.81444 24.1991 2.89107 24.2637C2.8138 24.1997 2.74097 24.1326 2.67258 24.0604Z" fill="#00AAE1"/>
<path d="M2.93857 24.3054C3.03103 24.3782 3.12856 24.446 3.23242 24.5062C3.12856 24.446 3.03103 24.3782 2.93857 24.3054Z" fill="#00AAE1"/>
<path d="M27.7171 24.5062C27.821 24.446 27.9185 24.3789 28.011 24.3054C27.9185 24.3782 27.821 24.446 27.7171 24.5062Z" fill="#00AAE1"/>
<path d="M23.8641 12.5944C23.8641 12.4918 23.8565 12.3898 23.8438 12.2892C23.8565 12.3898 23.8641 12.4912 23.8641 12.5944Z" fill="#00AAE1"/>
<path d="M23.4157 11.1765C23.4157 11.1765 23.4119 11.1714 23.4106 11.1682C23.4125 11.1708 23.4144 11.1733 23.4157 11.1765Z" fill="#00AAE1"/>
<path d="M8.0366 10.6382C8.02014 10.6515 8.00557 10.6667 7.98911 10.68C8.00557 10.6667 8.02014 10.6515 8.0366 10.6382Z" fill="#00AAE1"/>
<path d="M22.9604 10.68C22.9439 10.6667 22.9293 10.6515 22.9129 10.6382C22.9293 10.6515 22.9439 10.666 22.9604 10.68Z" fill="#00AAE1"/>
<path d="M23.2048 10.913C23.196 10.9035 23.1884 10.8934 23.1789 10.8839C23.1877 10.8934 23.196 10.9035 23.2048 10.913Z" fill="#00AAE1"/>
<path d="M23.714 11.7559C23.7121 11.7496 23.7102 11.7439 23.7077 11.7376C23.7102 11.7433 23.7115 11.7496 23.714 11.7559Z" fill="#00AAE1"/>
<path d="M23.7077 20.2618C23.7096 20.2567 23.7108 20.2517 23.7127 20.2466C23.7108 20.2517 23.7096 20.2567 23.7077 20.2618Z" fill="#00AAE1"/>
<path d="M23.8084 12.0941C23.802 12.0644 23.7976 12.034 23.7906 12.0048C23.7982 12.034 23.802 12.0644 23.8084 12.0941Z" fill="#00AAE1"/>
<path d="M23.7906 19.9946C23.7976 19.9667 23.802 19.9376 23.8077 19.9091C23.8014 19.9376 23.7976 19.9661 23.7906 19.9946Z" fill="#00AAE1"/>
<path d="M23.8445 19.7102C23.8565 19.6102 23.8647 19.5095 23.8647 19.4069C23.8647 19.5095 23.8571 19.6102 23.8445 19.7102Z" fill="#00AAE1"/>
<path d="M2.64657 24.0306C2.57248 23.9502 2.50408 23.8647 2.44202 23.7754C2.50408 23.8647 2.57311 23.9495 2.64657 24.0306Z" fill="#00AAE1"/>
<path d="M28.6937 8.53622L28.6965 8.54124C28.6965 8.54124 28.6944 8.53837 28.6937 8.53622Z" fill="#00AAE1"/>
<path d="M28.0591 24.263C28.1357 24.199 28.2098 24.1326 28.2775 24.0597C28.2091 24.1319 28.1363 24.199 28.0591 24.263Z" fill="#00AAE1"/>
<path d="M28.693 23.4632L23.5956 20.5202L28.693 23.4632Z" fill="#00AAE1"/>
<path d="M28.5138 8.23352C28.5233 8.24809 28.5296 8.26265 28.5385 8.27658C28.5296 8.26265 28.5227 8.24745 28.5132 8.23352H28.5138Z" fill="#00AAE1"/>
<path d="M15.7965 25.2813C15.6895 25.2953 15.5824 25.3022 15.4748 25.3022C15.3671 25.3022 15.2601 25.2953 15.153 25.2813C15.3665 25.3092 15.5831 25.3092 15.7965 25.2813Z" fill="#00AAE1"/>
<path d="M7.77062 10.8832C7.76176 10.8927 7.75353 10.9029 7.74466 10.9124C7.75353 10.9029 7.76113 10.8927 7.77062 10.8832Z" fill="#00AAE1"/>
<path d="M16.7205 1.14497C16.3348 0.922685 15.9048 0.811224 15.4748 0.811224C15.0448 0.811224 14.6147 0.922685 14.2297 1.14497L3.23242 7.49382C3.12856 7.55399 3.03103 7.62112 2.93857 7.69458C3.03103 7.62175 3.12856 7.55399 3.23242 7.49382L14.2297 1.14497C15.0004 0.699763 15.9497 0.699763 16.7205 1.14497L27.7178 7.49382C27.8216 7.55399 27.9191 7.62175 28.0116 7.69458C27.9191 7.62112 27.8216 7.55399 27.7178 7.49382L16.7205 1.14497Z" fill="#00AAE1"/>
<path d="M7.53949 11.1682C7.53949 11.1682 7.53569 11.1733 7.53442 11.1765C7.53632 11.1739 7.53822 11.1714 7.53949 11.1682Z" fill="#00AAE1"/>
<path d="M7.35457 11.4798C7.18357 11.8205 7.08541 12.1999 7.08541 12.5944V19.4056C7.08541 19.8001 7.18357 20.1789 7.35457 20.5202L2.25649 23.4638C2.30905 23.5689 2.36922 23.6696 2.43571 23.7665C2.15136 23.3561 1.98734 22.8653 1.98734 22.3492V9.65085C1.98734 9.13471 2.15136 8.6439 2.43571 8.23352C2.36922 8.33042 2.30905 8.43174 2.25649 8.53687L7.35457 11.4805V11.4798Z" fill="#009BCC"/>
<path d="M28.6936 23.4638C28.6936 23.4638 28.6962 23.46 28.6968 23.4575C28.6436 23.5645 28.5828 23.6677 28.5144 23.7665C28.5809 23.6696 28.6411 23.5689 28.6936 23.4638Z" fill="#00AAE1"/>
<path d="M28.8298 8.86429C28.7956 8.76423 28.757 8.66544 28.7108 8.57108C28.7564 8.66607 28.7963 8.7636 28.8298 8.86429Z" fill="#00AAE1"/>
<path d="M23.41 20.8318C23.41 20.8318 23.4138 20.8261 23.4157 20.8235C23.4138 20.8261 23.4119 20.8292 23.41 20.8318Z" fill="#00AAE1"/>
<path d="M28.9178 9.20881C28.9001 9.11318 28.8792 9.01818 28.8507 8.92572C28.8792 9.01818 28.9007 9.11254 28.9178 9.20881Z" fill="#00AAE1"/>
<path d="M28.2776 7.93965C28.2098 7.86745 28.1357 7.80032 28.0584 7.73636C28.1357 7.80032 28.2092 7.86745 28.2776 7.93965Z" fill="#00AAE1"/>
<path d="M28.5081 8.22464C28.446 8.13535 28.377 8.05048 28.3035 7.96942C28.3776 8.05048 28.446 8.13535 28.5081 8.22464Z" fill="#00AAE1"/>
<path d="M28.693 8.53625C28.6404 8.43176 28.5803 8.33106 28.5144 8.2348C28.5809 8.33106 28.6404 8.43176 28.693 8.53625Z" fill="#00AAE1"/>
<path d="M28.7101 23.4302C28.757 23.3346 28.7962 23.2352 28.8304 23.1339C28.7969 23.2352 28.7563 23.334 28.7101 23.4302Z" fill="#00AAE1"/>
<path d="M28.3035 24.0306C28.377 23.9495 28.446 23.8653 28.5081 23.7754C28.4454 23.8647 28.3776 23.9495 28.3035 24.0306Z" fill="#00AAE1"/>
<path d="M28.9622 22.3492C28.9622 22.472 28.9514 22.593 28.9337 22.7127C28.9514 22.5936 28.9622 22.472 28.9622 22.3492Z" fill="#00AAE1"/>
<path d="M28.8507 23.0749C28.8792 22.9818 28.9007 22.8869 28.9185 22.7906C28.9014 22.8869 28.8792 22.9818 28.8507 23.0749Z" fill="#00AAE1"/>
<path d="M28.9622 9.65021C28.9622 9.52735 28.9514 9.40639 28.9337 9.28796C28.9514 9.40702 28.9622 9.52799 28.9622 9.65021Z" fill="#00AAE1"/>
<path d="M7.98911 21.3201C8.00557 21.3334 8.02014 21.3492 8.03724 21.3625C8.02077 21.3492 8.00557 21.334 7.98911 21.3201Z" fill="#00AAE1"/>
<path d="M23.1795 21.1167C23.1884 21.1072 23.1966 21.0965 23.2055 21.087C23.1966 21.0965 23.1884 21.1072 23.1795 21.1167Z" fill="#00AAE1"/>
<path d="M7.74466 21.087C7.75353 21.0965 7.76176 21.1072 7.77062 21.1167C7.76176 21.1072 7.75353 21.0965 7.74466 21.087Z" fill="#00AAE1"/>
<path d="M22.9129 21.3619C22.93 21.3486 22.9445 21.3334 22.961 21.3194C22.9445 21.3334 22.93 21.3486 22.9129 21.3619Z" fill="#00AAE1"/>
<path d="M2.89103 7.73636C2.8144 7.80032 2.7403 7.86745 2.67191 7.93965C2.7403 7.86745 2.81377 7.80032 2.89103 7.73636Z" fill="#00AAE1"/>
<path d="M2.64657 7.96942C2.57311 8.05048 2.50408 8.13535 2.44202 8.22464C2.50471 8.13535 2.57248 8.05048 2.64657 7.96942Z" fill="#00AAE1"/>
<path d="M14.526 25.1142C14.7287 25.1978 14.9396 25.2535 15.153 25.2807C14.9396 25.2529 14.7287 25.1971 14.526 25.1142Z" fill="#00AAE1"/>
<path d="M7.53378 20.8235C7.53378 20.8235 7.53758 20.8292 7.53948 20.8318C7.53758 20.8292 7.53568 20.8261 7.53378 20.8235Z" fill="#00AAE1"/>
<path d="M28.693 8.53686L23.5956 11.4798C23.543 11.3747 23.4828 11.2734 23.4157 11.1765C23.4138 11.1739 23.4119 11.1714 23.4106 11.1682C23.3486 11.0783 23.2789 10.9934 23.2054 10.9124C23.1966 10.9029 23.189 10.8927 23.1795 10.8832C23.1117 10.811 23.0376 10.7439 22.9604 10.68C22.9439 10.6667 22.9293 10.6515 22.9129 10.6382C22.8204 10.5647 22.7229 10.4976 22.619 10.4374L16.7198 7.03151C16.3348 6.80922 15.9047 6.69776 15.4747 6.69776V0.811218C15.9047 0.811218 16.3348 0.922679 16.7198 1.14497L27.7171 7.49382C27.8209 7.55398 27.9185 7.62111 28.0109 7.69457C28.0274 7.70787 28.042 7.72307 28.0584 7.73637C28.1351 7.80033 28.2092 7.86746 28.2776 7.93966C28.2864 7.94916 28.2947 7.95993 28.3035 7.96943C28.377 8.05049 28.446 8.13535 28.5081 8.22465C28.51 8.22781 28.5119 8.23035 28.5138 8.23351C28.5233 8.24744 28.5302 8.26264 28.5391 8.27658C28.5948 8.36081 28.6474 8.44693 28.693 8.53686Z" fill="#007296"/>
<path d="M28.6937 8.53622L28.693 8.53694L28.6937 8.53622Z" fill="#00AAE1"/>
<path d="M14.2297 1.14497C14.6147 0.922679 15.0447 0.811218 15.4747 0.811218V6.69776C15.0447 6.69776 14.6147 6.80922 14.2297 7.03151L8.33046 10.4374C8.2266 10.4976 8.12907 10.5647 8.03661 10.6382C8.02015 10.6515 8.00558 10.666 7.98911 10.68C7.91249 10.7439 7.83776 10.811 7.76999 10.8832C7.76113 10.8927 7.75289 10.9029 7.74403 10.9124C7.67056 10.9934 7.6009 11.0783 7.53884 11.1682C7.53694 11.1708 7.53504 11.1733 7.53377 11.1765C7.46727 11.2734 7.40711 11.3747 7.35391 11.4798L2.25647 8.53623C2.30903 8.4311 2.3692 8.32977 2.43569 8.23288C2.43759 8.22971 2.43949 8.22718 2.44139 8.22401C2.50346 8.13472 2.57249 8.04985 2.64595 7.96879C2.65482 7.95929 2.66305 7.94853 2.67192 7.93903C2.73968 7.86683 2.81378 7.7997 2.89104 7.73574C2.9075 7.72244 2.92207 7.70724 2.93854 7.69394C3.031 7.62048 3.12853 7.55335 3.23239 7.49318L14.2297 1.14497Z" fill="#008DBA"/>
<path d="M15.4747 25.3023C15.5824 25.3023 15.6894 25.2953 15.7964 25.2814C16.1169 25.2396 16.431 25.1351 16.7198 24.9685L22.619 21.5626C22.7229 21.5024 22.8204 21.4353 22.9129 21.3619C22.9293 21.3486 22.9445 21.3334 22.961 21.3194C23.0376 21.2555 23.1117 21.189 23.1795 21.1161C23.1883 21.1066 23.1966 21.0959 23.2054 21.0864C23.2789 21.0053 23.3479 20.9204 23.4106 20.8311C23.4125 20.8286 23.4144 20.8254 23.4163 20.8229C23.4828 20.726 23.543 20.6247 23.5962 20.5196L28.6936 23.4625C28.6404 23.567 28.5815 23.669 28.5144 23.7659C28.5125 23.769 28.5106 23.7716 28.5087 23.7747C28.5106 23.7716 28.5125 23.769 28.5144 23.7659C28.5809 23.669 28.6411 23.5683 28.6936 23.4631C28.6411 23.5683 28.5809 23.6696 28.5144 23.7659C28.5125 23.769 28.5106 23.7716 28.5087 23.7747C28.4466 23.864 28.3776 23.9489 28.3042 24.03C28.2953 24.0395 28.2871 24.0502 28.2782 24.0597C28.2104 24.1319 28.1363 24.1984 28.0597 24.263C28.0432 24.2769 28.0287 24.2921 28.0116 24.3054C27.9191 24.3783 27.8216 24.446 27.7177 24.5062L16.7204 30.855C16.4317 31.0216 16.1175 31.1261 15.7971 31.1679C15.6901 31.1818 15.583 31.1888 15.4754 31.1888V25.3023H15.4747Z" fill="#3BBFEF"/>
<path d="M2.43569 23.7665C2.3692 23.6696 2.30903 23.5689 2.25647 23.4638L7.35455 20.5202C7.40711 20.6253 7.46727 20.7267 7.5344 20.8236C7.5363 20.8261 7.5382 20.8293 7.5401 20.8318C7.60217 20.9211 7.6712 21.0059 7.74529 21.087C7.75416 21.0965 7.76239 21.1073 7.77126 21.1168C7.83902 21.189 7.91312 21.2555 7.98975 21.3201C8.00621 21.334 8.02078 21.3492 8.03788 21.3625C8.13034 21.4353 8.22787 21.5031 8.33173 21.5633L9.45204 22.2099L7.73706 26.2782L13.2537 24.4049L14.2309 24.9691C14.3272 25.0249 14.4266 25.0736 14.5273 25.1154C14.73 25.199 14.9409 25.2548 15.1543 25.282C15.2613 25.2959 15.3683 25.3029 15.476 25.3029V31.1894C15.1537 31.1894 14.8313 31.1267 14.5273 31.002C14.426 30.9602 14.3272 30.9114 14.2309 30.8557L3.23239 24.5062C3.12853 24.446 3.031 24.3789 2.93854 24.3054C2.92207 24.2921 2.90687 24.2769 2.8904 24.263C2.81378 24.1991 2.73968 24.1326 2.67192 24.0597C2.66305 24.0502 2.65482 24.0395 2.64595 24.03C2.57249 23.9489 2.50346 23.8647 2.44139 23.7747C2.43949 23.7716 2.43759 23.769 2.43569 23.7659V23.7665Z" fill="#00AAE1"/>
<path d="M23.5956 20.5202C23.6374 20.436 23.6754 20.3498 23.7083 20.2618C23.7102 20.2567 23.7115 20.2517 23.7134 20.2466C23.7431 20.1643 23.7691 20.0807 23.7906 19.9952C23.7976 19.9673 23.802 19.9382 23.8077 19.9097C23.8217 19.8438 23.8356 19.778 23.8445 19.7108C23.8571 19.6108 23.8647 19.5101 23.8647 19.4075V12.5944C23.8647 12.4912 23.8571 12.3899 23.8445 12.2892C23.8362 12.2233 23.8223 12.1587 23.8084 12.0941C23.802 12.0644 23.7976 12.034 23.7906 12.0048C23.7691 11.9206 23.7438 11.8376 23.714 11.7559C23.7121 11.7496 23.7102 11.7439 23.7077 11.7376C23.6747 11.6502 23.638 11.564 23.5962 11.4811V11.4798L28.6937 8.53687C28.6937 8.53687 28.6956 8.54003 28.6962 8.5413C28.7013 8.55143 28.7063 8.56156 28.7114 8.5717C28.7576 8.66669 28.7963 8.76485 28.8304 8.86492C28.8374 8.88518 28.845 8.90545 28.8513 8.92635C28.8798 9.01881 28.9014 9.11317 28.9185 9.20943C28.9235 9.23603 28.9305 9.26136 28.9343 9.28859C28.952 9.40766 28.9628 9.52862 28.9628 9.65084V22.3498C28.9628 22.4727 28.952 22.5936 28.9343 22.7133C28.9305 22.7399 28.9235 22.7653 28.9185 22.7912C28.9007 22.8875 28.8792 22.9831 28.8507 23.0756C28.8444 23.0958 28.8374 23.1148 28.8304 23.1351C28.7963 23.2364 28.757 23.3359 28.7101 23.4315C28.7057 23.4403 28.7013 23.4498 28.6968 23.4587C28.6956 23.4606 28.6943 23.4625 28.6937 23.4644L23.5962 20.5215L23.5956 20.5202Z" fill="#66CDF5"/>
<path d="M28.6936 23.4631C28.6411 23.5683 28.5809 23.6696 28.5144 23.7658C28.5815 23.6696 28.6404 23.5676 28.6936 23.4625V23.4631Z" fill="#00AAE1"/>
<path d="M28.693 8.53689C28.6474 8.44696 28.5955 8.36083 28.5391 8.2766C28.5302 8.2633 28.5233 8.2481 28.5144 8.2348C28.5809 8.33106 28.6404 8.43176 28.693 8.53625V8.53689Z" fill="#00AAE1"/>
<path d="M28.5081 23.7753C28.5081 23.7753 28.5119 23.7696 28.5138 23.7665L28.5081 23.7753Z" fill="#00AAE1"/>
</g>
<defs>
<clipPath id="clip0_1595_2573">
<rect width="26.9748" height="30.3776" fill="white" transform="translate(1.98734 0.811218)"/>
</clipPath>
</defs>
</svg>
