<svg width="267" height="380" viewBox="0 0 267 380" fill="none" xmlns="http://www.w3.org/2000/svg">
<path d="M28.4482 151.78C25.2833 152.728 23.9523 150.169 22.2686 149.954C15.0632 149.033 16.474 145.531 14.7817 146.159C11.5827 148.462 19.8832 152.893 14.1128 152.701C12.7755 152.602 5.8845 151.461 4.20215 151.289C3.02082 151.168 2.6675 150.733 2.50615 152.309C2.38541 153.489 0.949498 152.15 0.73586 154.116C1.42098 155.38 -1.53695 157.067 5.30925 160.155C6.52922 160.705 8.24287 161.546 9.04554 162.527C9.84821 163.507 17.8516 165.483 22.0402 163.856C26.2288 162.23 24.7055 163.52 28.7316 162.368C32.7719 161.259 37.7086 160.725 37.7086 160.725L34.5599 150.416L28.4482 151.78Z" fill="#F0BB8F"/>
<path d="M23.6171 144.388L60.6202 141.228C68.1973 134.458 85.019 99.4708 93.3694 96.1296C95.9989 95.102 94.6078 109.505 98.4079 109.747C98.2044 120.611 107.544 116.311 101.887 124.908L96.6647 132.894C90.1672 137.3 74.4401 162.837 66.7248 163.227C60.0836 163.535 25.7516 163.315 25.7516 163.315C19.0773 155.171 23.6297 144.445 23.6297 144.445L23.6171 144.388Z" fill="#31CE5D"/>
<path d="M68.7597 162.134C62.3098 162.514 28.9348 162.582 28.9348 162.582C26.9971 160.078 25.9811 157.393 25.5366 154.77C32.2753 154.547 65.9349 153.502 67.9421 152.08C70.1716 150.52 94.1369 115.987 94.1369 115.987L85.0415 146.143C79.7602 151.93 76.2992 161.645 68.8068 162.119L68.7597 162.134Z" fill="#1FB549"/>
<path d="M142.733 225.622L139.01 127.836L149.583 149.797L156.983 220.081L142.733 225.622Z" fill="#1FB549"/>
<path d="M87.9761 221.269C85.6911 242.164 92.7977 254.873 92.1182 258.112C91.4386 261.352 90.1833 283.112 93.9934 303.371C95.9931 313.995 109.286 344.553 109.309 348.135C109.34 352.921 107.506 360.634 107.914 360.751C108.318 360.868 120.685 361.63 120.685 361.63C120.685 361.63 120.5 356.59 120.303 353.95C120.106 351.309 118.911 315.128 117.624 305.602C116.338 296.078 115.339 280.249 115.339 280.249C115.339 280.249 121.246 296.689 125.183 314.095C129.12 331.501 129.25 354.763 129.25 354.763C125.416 357.802 142.264 354.776 142.264 352.323C142.5 352.538 142.951 342.538 142.484 338.637C142.02 334.757 145.238 316.426 143.077 298.641C141.031 281.806 139.759 266.422 139.759 262.272C139.759 258.122 146.66 229.276 145.457 216.25C145.371 215.337 88.3626 217.757 87.9787 221.269H87.9761Z" fill="#F0BB8F"/>
<path d="M89.9924 165.634C89.9924 165.634 81.9577 198.538 83.5561 234.455C83.5561 234.455 99.6962 235.912 116.974 235.912C138.481 235.912 148.372 234.806 148.372 234.806C148.372 234.806 153.267 170.361 145.213 162.695C137.159 155.028 89.9902 165.636 89.9902 165.636L89.9924 165.634Z" fill="#3994E9"/>
<path d="M130.841 167.912C130.841 167.912 131.063 177.158 131.633 212.467C131.633 212.467 134.171 235.912 140.341 235.912C148.021 235.912 151.688 235.912 151.688 235.912C151.688 235.912 153.437 172.559 150.561 165.022C147.684 157.486 130.84 167.913 130.84 167.913L130.841 167.912Z" fill="#2D7EC9"/>
<path d="M120.719 24.5441C126.471 24.6271 135.017 28.515 139.082 38.3216C143.483 48.9348 143.483 85.9048 143.483 85.9048L137.336 86.3873L137.305 84.18L136.361 86.4651L116.854 87.9953L97.5831 86.7659L97.2771 84.1775L96.8491 86.7192L91.2701 86.3639C91.2701 86.3639 80.8618 23.9631 120.719 24.5441Z" fill="#C0560D"/>
<g opacity="0.11">
<path d="M99.9839 66.1022C99.626 75.6002 100.591 86.7252 100.591 86.7252C100.591 86.7252 111.393 87.537 120.129 87.7341L132.851 86.7355C134.578 84.3338 133.676 60.6719 133.676 60.6719C133.676 60.6719 100.129 62.1884 99.9814 66.1022H99.9839Z" fill="black"/>
</g>
<path d="M108.896 70.9724C108.896 70.9724 109.448 83.5024 108.896 84.4802C108.343 85.4606 85.4301 91.8941 84.9399 93.0197C84.4497 94.1428 95.3359 158.708 95.3359 158.708H138.66C138.66 158.708 151.699 92.7929 150.91 92.1782C150.122 91.5635 127.051 84.8511 126.263 83.7488C125.474 82.6465 125.791 70.1943 125.791 70.1943L108.898 70.9724H108.896Z" fill="#F0BB8F"/>
<path d="M102.055 49.4796C102.055 49.4796 100.961 57.1637 102.135 64.96C103.343 72.9831 111.648 78.2219 117.046 78.2219C121.255 78.2219 129.839 73.8036 131.457 66.1125C133.168 57.9655 132.257 48.7035 132.257 47.9694C132.257 46.5458 129.496 34.3008 118.493 34.3008C107.491 34.3008 102.988 46.3237 102.06 49.4796H102.055Z" fill="#F0BB8F"/>
<path d="M99.7514 67.0695C99.7514 67.0695 97.1396 33.3312 114.81 31.3782C132.481 29.4252 132.644 38.8609 133.049 43.558C133.09 44.0352 133.093 53.375 135.733 54.8923C135.733 54.8923 143.219 25.4387 118.587 26.4554C93.9546 27.4721 94.9713 55.0298 94.8935 55.4318C94.8157 55.8338 99.7514 67.0695 99.7514 67.0695Z" fill="#C0560D"/>
<path d="M135.526 57.7616C136.12 55.2215 135.062 52.8025 133.163 52.3585C131.264 51.9145 129.243 53.6137 128.65 56.1538C128.056 58.6939 129.114 61.113 131.013 61.557C132.912 62.001 134.932 60.3017 135.526 57.7616Z" fill="#F0BB8F"/>
<path d="M109.087 76.791C110.879 78.0143 114.445 80.0045 117.351 79.8272C117.537 79.8272 118.004 79.8519 118.191 79.8406C120.779 79.6903 123.624 79.6697 125.707 79.1647C125.682 77.937 125.699 75.9395 125.707 74.8105C124.074 75.7038 120.708 77.5939 117.747 77.7645C114.93 77.9284 110.812 76.4362 109.083 75.6035C109.098 76.0592 109.072 76.2995 109.087 76.791Z" fill="#DF9557"/>
<path d="M104.824 93.83C104.824 93.83 109.986 96.9943 117.453 96.9943C126.914 96.9943 130.846 92.8496 130.846 92.8496C130.846 92.8496 137.551 170.716 135.453 171.391C126.873 174.148 101.44 173.536 97.352 171.248C96.1537 170.579 104.824 93.83 104.824 93.83Z" fill="#E1EDF7"/>
<path d="M83.5827 93.2386C88.3519 88.6336 107.921 84.7068 107.921 84.7068C107.921 84.7068 109.642 226.581 107.921 229.158C106.215 231.714 79.8416 221.965 78.0458 219.922C76.2499 217.884 85.327 176.827 85.327 176.827C85.327 176.827 89.4907 145.865 87.0301 135.038C85.3528 127.664 76.4097 100.165 83.5827 93.235V93.2386Z" fill="#31CE5D"/>
<path d="M98.8493 369.949C98.8493 369.949 97.4149 377.061 111.584 376.368C125.753 375.676 124.931 371.511 123.764 369.604C122.597 367.695 122.965 366.57 123.86 364.228C124.755 361.885 121.995 356.568 121.339 354.631C120.994 353.619 120.636 353.425 120.478 353.36C120.384 353.321 120.576 354.104 120.576 354.104C119.858 354.867 118.424 356.335 118.424 356.335C118.424 356.335 121.824 350.87 114.064 350.523C106.303 350.175 107.579 354.774 107.579 354.774L107.502 354.081C107.502 354.081 105.92 358.33 103.487 361.626C101.054 364.923 98.8441 366.832 98.8519 369.952L98.8493 369.949Z" fill="#31CE5D"/>
<path d="M106.272 365.39C106.272 365.39 106.064 357.324 108.103 356.543C110.141 355.763 117.422 356.284 117.839 357.389C118.259 358.494 116.182 365.066 116.182 365.066L106.272 365.39Z" fill="#E1EDF7"/>
<path d="M151.471 369.33C151.471 369.33 152.905 376.442 138.736 375.749C124.567 375.057 125.389 370.891 126.556 368.985C127.724 367.076 127.355 365.95 126.46 363.608C125.566 361.266 128.325 355.949 128.981 354.012C129.326 353 129.684 352.806 129.843 352.741C129.936 352.702 129.744 353.485 129.744 353.485C130.462 354.248 131.897 355.716 131.897 355.716C131.897 355.716 128.496 350.251 136.257 349.904C144.017 349.556 142.741 354.155 142.741 354.155L142.819 353.462C142.819 353.462 144.401 357.71 146.834 361.007C149.266 364.303 151.476 366.212 151.468 369.333L151.471 369.33Z" fill="#31CE5D"/>
<path d="M144.051 364.781C144.051 364.781 144.258 356.715 142.22 355.934C140.181 355.153 132.901 355.675 132.483 356.779C132.063 357.884 134.14 364.457 134.14 364.457L144.051 364.781Z" fill="#E1EDF7"/>
<path d="M126.406 83.8906C126.406 83.8906 126.858 228.045 127.693 229.186C129.249 231.308 156.034 220.895 156.589 219.686C157.144 218.478 149.459 147.957 149.459 147.957C149.459 147.957 153.277 150.216 157.569 148.486C159.198 147.829 161.926 141.823 161.872 139.128C161.605 126.162 157.354 95.4298 155.268 93.5676C152.205 90.8364 126.406 83.8906 126.406 83.8906Z" fill="#31CE5D"/>
<path d="M141.836 121.936C141.747 122.053 139.981 124.203 139.784 125.005C139.587 125.806 139.011 142.271 141.224 145.352C143.436 148.433 155.133 152.114 156.555 151.063C157.976 150.013 161.911 141.729 161.874 139.864C161.838 137.999 152.21 118.246 151.972 118.007C151.733 117.768 141.838 121.936 141.838 121.936H141.836Z" fill="#31CE5D"/>
<path d="M145.041 113.207L132.759 112.826C132.053 112.819 131.481 112.083 131.687 111.428L137.153 94.1688C137.812 92.0824 139.233 91.0169 141.484 91.0404L150.333 91.1249C151.592 91.1249 152.557 92.0848 152.122 93.3005L146.062 112.482C145.924 112.916 145.508 113.211 145.041 113.207Z" fill="#F9C069"/>
<path d="M151.034 91.9228L141.976 91.8325C139.915 91.8112 138.878 92.6899 138.274 94.6065L132.436 113.081L145.007 113.207C145.482 113.212 145.902 112.913 146.039 112.473L152.203 92.9203C152.374 92.3479 151.602 91.9275 151.032 91.9228H151.034Z" fill="#F59300"/>
<path d="M148.168 97.3734L145.584 97.3671C145.26 97.3671 145.028 97.1031 145.123 96.8453L146.047 94.3527C146.254 93.7934 146.875 93.413 147.577 93.415L150.161 93.4213C150.485 93.4213 150.717 93.6853 150.622 93.9431L149.697 96.4358C149.491 96.995 148.87 97.3754 148.168 97.3734Z" fill="#AB4D0C"/>
<path d="M151.359 100.01C151.674 98.9844 151.199 98.1325 150.412 98.1894L148.474 104.557C148.474 104.557 140.249 96.8343 139.049 98.3674C137.849 99.9029 144.979 107.094 144.979 107.094L144.134 107.858C144.134 107.858 136.219 103.814 134.589 103.024C132.959 102.233 131.943 102.217 131.695 102.917C131.375 103.816 132.241 104.86 132.241 104.86C132.241 104.86 131.196 104.353 130.523 105.124C129.919 105.819 130.559 107.326 130.559 107.326C130.559 107.326 129.402 106.882 129.277 108.185C129.013 110.936 137.586 117.46 137.586 117.564C137.586 117.668 138.712 119.18 139.167 119.937C139.542 120.559 140.306 121.613 140.306 121.613C140.306 121.613 140.96 122.685 141.304 123.499C142.566 123.442 143.831 123.255 145.024 122.894C146.334 122.498 147.558 121.888 148.696 121.14C148.41 119.89 147.591 116.195 147.794 115.526C148.038 114.716 151.994 109.635 152.185 108.105C152.528 105.34 150.775 101.892 151.354 100.007L151.359 100.01Z" fill="#F0BB8F"/>
<path d="M255.6 353.741C254.888 357.41 257.461 359.71 257.461 359.71C257.461 359.71 249.631 368.252 240.431 368.909C231.232 369.621 225.701 365.021 225.701 365.021C225.701 365.021 236.762 359.491 238.35 354.891C239.938 350.291 255.654 353.741 255.654 353.741H255.6Z" fill="#F0BB8F"/>
<path d="M257.46 359.708C259.705 361.131 258.61 370.933 258.61 370.933C258.61 370.933 235.776 381.557 223.948 379.804C212.12 378.052 211.353 372.193 214.967 369.838C218.581 367.484 228.109 363.65 228.109 363.65L231.778 359.051C231.778 359.051 233.859 358.777 235.995 360.693C238.13 362.555 235.502 365.622 235.502 365.622C235.502 365.622 240.485 365.895 245.851 364.636C251.218 363.377 257.46 359.653 257.46 359.653V359.708Z" fill="#2D7EC9"/>
<path d="M208.396 345.357C207.739 348.861 210.149 351.052 210.149 351.052C210.149 351.052 202.756 359.101 194.049 359.758C185.343 360.415 180.086 356.035 180.086 356.035C180.086 356.035 190.545 350.833 192.078 346.452C193.611 342.071 208.396 345.357 208.396 345.357Z" fill="#F0BB8F"/>
<path d="M210.155 351.056C212.291 352.371 211.25 361.68 211.25 361.68C211.25 361.68 189.62 371.755 178.45 370.112C167.279 368.47 166.512 362.939 169.962 360.694C173.357 358.449 182.392 354.835 182.392 354.835L185.842 350.509C185.842 350.509 187.813 350.29 189.839 352.042C191.866 353.849 189.401 356.697 189.401 356.697C189.401 356.697 194.111 356.97 199.203 355.766C204.296 354.561 210.21 351.056 210.21 351.056H210.155Z" fill="#2D7EC9"/>
<path d="M253.855 264.537C249.803 250.848 249.091 206.986 248.707 191.818C248.324 176.704 247.886 171.338 246.462 163.671L210.157 149.051L182.559 169.147C182.559 169.147 181.737 204.741 182.011 213.557C182.23 222.373 182.34 263.661 185.023 271.273C187.651 278.884 187.651 282.991 187.377 292.081C187.104 300.295 188.527 337.476 188.801 344.321C188.801 345.033 189.239 345.636 189.841 345.909C198.986 350.345 210.486 348.319 214.209 347.443C214.976 347.278 215.523 346.676 215.578 345.909C216.673 337.148 218.426 305.881 218.699 296.188C218.973 285.948 215.743 281.239 213.716 274.23C212.347 269.466 214.264 231.025 214.374 212.078C218.207 233.161 226.092 276.475 227.187 279.76C228.666 284.141 231.02 290 232.17 307.304C233.211 322.637 234.032 348.538 234.196 354.233C234.196 354.945 234.634 355.602 235.237 355.875C241.917 358.778 253.252 356.587 257.14 355.711C257.962 355.547 258.509 354.835 258.564 354.014C258.838 348.647 259.933 328.167 260.754 308.892C261.74 286.441 257.852 278.172 253.8 264.483L253.855 264.537Z" fill="#63CDF6"/>
<g opacity="0.5">
<path d="M202.537 264.533C205.439 273.294 205.549 348.642 205.549 348.642C209.327 348.478 212.503 347.876 214.146 347.492C214.913 347.328 215.46 346.726 215.515 345.959C216.61 337.198 218.363 305.93 218.636 296.238C218.91 285.998 215.679 281.289 213.653 274.28C212.284 269.516 214.201 231.075 214.31 212.128L213.544 167.773L203.851 171.442C203.851 171.442 199.525 255.826 202.428 264.587L202.537 264.533Z" fill="#12AAE1"/>
</g>
<g opacity="0.5">
<path d="M243.557 264.537C249.143 279.925 249.581 344.266 248.102 357.19C251.935 356.861 255.385 356.204 257.192 355.766C258.014 355.602 258.561 354.89 258.616 354.068C258.89 348.702 259.985 328.222 260.806 308.947C261.792 286.496 257.904 278.227 253.852 264.537C249.8 250.848 249.088 206.986 248.705 191.817C248.321 176.704 247.555 175.937 247.5 167.614L216.561 150.693C211.359 151.679 206.924 152.391 203.912 152.5L200.243 152.884L190.715 166.081C207.033 174.787 232.551 170.242 232.551 170.242C232.551 170.242 237.589 248.055 243.557 264.537Z" fill="#12AAE1"/>
</g>
<path d="M192.578 24.0898C188.909 49.6075 191.263 71.0731 191.263 71.0731L225.597 67.8423L214.536 24.0898H192.523H192.578Z" fill="#343754"/>
<path d="M207.137 61.0567C204.399 61.44 197.116 62.4257 192.681 64.178C188.191 65.9303 184.303 70.4205 180.415 82.9056C178.115 90.1885 176.363 97.3072 175.322 101.962C174.556 105.247 170.832 125.453 170.832 125.453L214.42 126.877V68.8325L207.192 61.002L207.137 61.0567Z" fill="#CE4F37"/>
<path d="M207.147 61.0547C204.409 61.438 197.126 62.4237 192.691 64.1759C188.584 65.8187 184.97 69.8161 181.355 80.1108L181.794 80.7679C185.681 74.2516 191.157 69.8709 194.114 68.6662C197.017 67.4615 206.271 65.5449 206.271 65.5449L208.68 62.6427L207.202 61.0547H207.147Z" fill="#B8402D"/>
<path d="M207.359 54.4222C208.509 57.1602 207.14 62.0337 205.99 63.786C204.84 65.5383 205.607 71.9999 213.218 73.3689C220.83 74.7378 225.922 71.9999 228.441 68.8786C230.96 65.7574 228.441 44.8394 228.441 44.8394L221.596 40.6777L207.359 54.4222Z" fill="#F0BB8F"/>
<path d="M184.893 105.46C183.963 97.4103 189.931 83.1182 189.931 83.1182C189.931 83.1182 187.248 99.8744 189.931 106.226L184.893 105.46Z" fill="#B8402D"/>
<g opacity="0.5">
<path d="M229.49 57.8814C229.38 54.5959 229.107 51.2556 228.833 48.7914C226.095 47.2582 223.247 46.2178 223.247 46.2178C223.247 46.2178 219.469 46.2725 215.526 46.4916L207.312 54.3769C207.915 55.7458 207.86 57.6076 207.532 59.3599C207.641 59.3599 220.4 61.9336 229.49 57.8267V57.8814Z" fill="#E8AB79"/>
</g>
<path d="M225.984 36.1951C228.338 42.1091 225.217 48.4064 219.686 52.349C214.156 56.2917 207.858 59.0296 204.299 55.525C200.74 51.9657 196.304 45.9422 196.304 41.9996C196.304 38.0569 191.705 37.7831 192.854 29.4598C194.059 21.1912 199.535 15.6605 202.711 14.8391C205.887 14.0725 224.779 22.7244 224.779 22.7244L225.984 36.1404V36.1951Z" fill="#F0BB8F"/>
<path d="M200.898 15.7696C201.226 17.5766 198.981 23.9287 195.258 28.4189C191.534 32.9091 195.422 37.7827 192.684 42.2729C189.946 46.7632 197.557 60.6172 192.684 65.9288C187.81 71.1857 183.156 71.4047 181.787 80.7685C181.787 80.7685 177.68 71.9523 180.637 65.3265C183.594 58.7006 186.879 55.1413 183.977 49.1178C181.02 43.0396 180.254 33.2924 183.594 29.7879C186.934 26.2833 190.548 18.0695 190.275 13.1959C190.001 8.32235 200.186 -2.62945 206.045 1.47747L200.952 15.8243L200.898 15.7696Z" fill="#444869"/>
<path d="M245.471 110.503C241.857 123.591 242.13 130.709 244.704 139.033C246.894 146.206 248.154 163.455 248.756 168.274C248.921 169.698 248.263 171.012 247.004 171.669C243.116 173.859 232.986 177.966 212.725 177.966C191.259 177.966 184.524 171.833 182.607 169.15C182.115 168.493 181.95 167.617 182.06 166.795C182.607 162.962 184.36 140.785 184.798 135.857C185.291 129.997 193.888 90.5162 193.888 90.5162L206.866 69.5983L235.559 57.168L247.278 63.4105L245.525 110.503H245.471Z" fill="#CE4F37"/>
<path d="M204.677 119.118C206.234 104.379 199.312 100.91 196.558 100.799C193.794 100.752 190.552 103.151 188.963 105.027C189.498 117.427 197.886 116.213 197.886 116.213L204.677 119.118Z" fill="#F0BB8F"/>
<path d="M181.92 130.302C179.885 131.923 174.922 134.717 172.132 133.402C169.342 132.088 169.573 124.806 170.329 123.251C171.028 121.686 187.777 102.411 187.777 102.411L198.087 105.003L181.92 130.302Z" fill="#F0BB8F"/>
<path d="M248.702 168.269C248.1 163.45 246.895 146.201 244.65 139.028C242.076 130.704 241.857 123.586 245.417 110.498C242.953 102.723 240.926 86.2949 240.926 86.2949C240.926 86.2949 233.863 116.303 234.848 125.502C235.779 134.702 236.82 175.224 236.82 175.388C241.803 174.128 245.088 172.705 246.95 171.664C248.209 171.007 248.867 169.638 248.702 168.269Z" fill="#B8402D"/>
<path d="M202.309 135.521L214.458 135.374C215.155 135.383 215.83 134.573 215.727 133.838L212.98 114.451C212.65 112.108 211.414 110.886 209.194 110.861L200.47 110.756C199.23 110.727 198.133 111.777 198.376 113.143L201.414 134.689C201.484 135.176 201.849 135.516 202.309 135.521Z" fill="#63CDF6"/>
<path d="M199.654 111.589L208.585 111.693C210.617 111.715 211.504 112.719 211.806 114.872L214.736 135.621L202.341 135.478C201.873 135.472 201.505 135.129 201.437 134.635L198.352 112.675C198.271 112.033 199.095 111.581 199.657 111.589L199.654 111.589Z" fill="#00ABE1"/>
<path d="M200.651 117.842L203.24 117.899C203.565 117.907 203.841 117.612 203.789 117.315L203.276 114.452C203.162 113.81 202.603 113.361 201.899 113.346L199.309 113.288C198.985 113.28 198.709 113.576 198.761 113.872L199.274 116.735C199.388 117.378 199.947 117.827 200.651 117.842Z" fill="#2D7EC9"/>
<path d="M241.252 126.667C237.412 126.787 229.057 129.825 226.299 130.065C223.542 130.245 219.864 127.844 218.026 125.444C215.863 122.624 213.429 122.444 213.429 122.444L214.998 127.664C214.998 127.664 213.862 127.664 209.482 127.664C205.102 127.664 201.965 123.704 201.316 124.604C200.667 125.504 201.965 131.565 202.776 132.945C203.588 134.265 208.13 135.645 210.023 136.245C211.861 136.845 218.512 136.065 220.946 136.245C223.379 136.425 237.601 140.265 244.415 140.985C251.228 141.705 250.039 131.745 250.039 131.745L243.785 127.089L241.252 126.667Z" fill="#F0BB8F"/>
<path d="M247.227 63.4062C255.824 66.9108 258.562 70.6344 261.3 79.0673C264.038 87.4454 266.009 116.577 266.557 124.572C267.159 132.567 266.557 136.29 264.805 137.057C263.052 137.824 254.398 141.992 242.515 141.445C242.515 141.445 247.288 129.022 240.826 126.667C240.826 126.667 247.799 125.478 250.537 126.245C250.537 126.245 246.351 115.044 244.434 106.83L247.282 63.4062H247.227Z" fill="#CE4F37"/>
<path d="M200.897 15.7672C200.131 21.5717 215.135 26.719 220.994 30.4974C225.922 33.6734 219.844 49.1154 226.798 53.6057C233.753 58.0959 222.199 64.1742 226.798 71.7857C231.398 79.3972 225.32 86.242 225.32 86.242C225.32 86.242 235.888 82.7375 236.053 76.2759C236.272 69.8143 238.572 59.8482 247.169 63.3528C247.169 63.3528 249.304 52.401 245.033 48.2941C240.707 44.1871 238.188 33.8377 240.543 30.7164C242.898 27.5952 238.188 12.7555 232.548 13.1388C226.908 13.5221 223.568 -5.20548 205.99 1.42036L200.897 15.7672Z" fill="#444869"/>
<path d="M262.279 83.1182C262.279 83.1182 264.36 129.499 263.429 131.744C262.498 134.044 249.534 139.465 243.784 137.056C243.675 139.137 242.518 141.444 242.518 141.444C254.455 142.047 263.046 137.877 264.798 137.056C266.55 136.289 267.152 132.566 266.55 124.571C266.057 117.562 264.469 94.4533 262.279 83.1182Z" fill="#B8402D"/>
<g opacity="0.5">
<path d="M195.215 28.4142C195.215 28.4142 195.653 27.8666 195.817 27.5928C195.598 27.8118 195.434 28.0308 195.215 28.4142Z" fill="#8A3F24"/>
</g>
<g opacity="0.5">
<path d="M240.539 30.7706C234.899 33.8918 242.182 50.4291 232.982 49.1696C221.155 47.5268 225.754 38.2178 222.469 32.6324C224.385 37.944 220.826 49.772 226.795 53.6051C233.749 58.0953 222.195 64.1736 226.795 71.7851C231.394 79.3966 225.316 86.2414 225.316 86.2414C225.316 86.2414 235.885 82.7369 236.049 76.2753C236.268 69.8137 238.568 59.8476 247.165 63.3522C247.165 63.3522 249.301 52.4004 245.029 48.2935C240.704 44.1865 238.185 33.8371 240.539 30.7158V30.7706Z" fill="#2F324F"/>
</g>
<g opacity="0.5">
<path d="M191.075 44.7378C188.064 54.8135 180.726 46.3806 180.343 37.6191C180.343 41.507 181.273 45.8877 182.861 49.1733C185.818 55.2515 182.478 58.7561 179.521 65.382C176.564 72.0078 180.671 80.824 180.671 80.824C182.04 71.4602 186.749 71.2412 191.568 65.9843C195.73 61.4393 190.747 50.597 190.966 44.7926L191.075 44.7378Z" fill="#393D5D"/>
</g>
</svg>
